<svg width="195" height="27" viewBox="0 0 195 27" fill="none" xmlns="http://www.w3.org/2000/svg">
<rect x="0.5" y="0.5" width="194" height="26" rx="13" fill="white"/>
<rect x="0.5" y="0.5" width="194" height="26" rx="13" stroke="url(#paint0_linear_4678_2227)"/>
<path d="M11.0167 18.5L12.8278 7.59091H19.6673L19.4329 9.00781H14.2393L13.6854 12.3317H18.522L18.2876 13.7433H13.451L12.897 17.0831H18.1545L17.9201 18.5H11.0167ZM22.2867 18.6811C21.7682 18.6811 21.3154 18.5852 20.9284 18.3935C20.5413 18.1982 20.2554 17.9158 20.0708 17.5465C19.8861 17.1772 19.8382 16.7244 19.9269 16.1882C20.0051 15.7266 20.1578 15.3466 20.385 15.0483C20.6159 14.75 20.8964 14.5138 21.2267 14.3398C21.5569 14.1623 21.9156 14.0291 22.3026 13.9403C22.6897 13.8516 23.0803 13.7859 23.4745 13.7433C23.9717 13.6864 24.3747 13.6385 24.6837 13.5994C24.9962 13.5604 25.2306 13.5 25.3868 13.4183C25.5431 13.3331 25.6372 13.1946 25.6691 13.0028V12.9656C25.7437 12.5039 25.6762 12.1452 25.4667 11.8896C25.2607 11.6303 24.9021 11.5007 24.3907 11.5007C23.858 11.5007 23.4106 11.6179 23.0484 11.8523C22.6897 12.0866 22.4252 12.3494 22.2547 12.6406L20.8271 12.2997C21.0828 11.8026 21.4078 11.4013 21.8019 11.0959C22.1997 10.7869 22.6347 10.5632 23.107 10.4247C23.5793 10.2827 24.0622 10.2116 24.5558 10.2116C24.8825 10.2116 25.2217 10.2507 25.5732 10.3288C25.9248 10.4034 26.2444 10.5419 26.532 10.7443C26.8232 10.9467 27.0399 11.2362 27.1819 11.6126C27.324 11.9854 27.3453 12.4702 27.2458 13.0668L26.3456 18.5H24.7902L24.982 17.3814H24.9181C24.7831 17.5874 24.5949 17.7898 24.3534 17.9886C24.1155 18.1875 23.8243 18.3526 23.4798 18.484C23.1354 18.6154 22.7377 18.6811 22.2867 18.6811ZM22.83 17.4027C23.2739 17.4027 23.6663 17.3157 24.0072 17.1417C24.3517 16.9677 24.6304 16.7404 24.8435 16.4599C25.0566 16.1758 25.1897 15.8722 25.243 15.549L25.4188 14.4943C25.3513 14.5511 25.2323 14.6026 25.0619 14.6488C24.895 14.695 24.7068 14.7358 24.4972 14.7713C24.2877 14.8068 24.0818 14.837 23.8794 14.8619C23.6805 14.8867 23.5154 14.9098 23.384 14.9311C23.0715 14.9702 22.7785 15.0359 22.5051 15.1282C22.2352 15.2205 22.0097 15.3537 21.8286 15.5277C21.6475 15.6982 21.5338 15.9254 21.4877 16.2095C21.4237 16.6037 21.5178 16.902 21.77 17.1044C22.0257 17.3033 22.379 17.4027 22.83 17.4027ZM28.467 18.5L29.8306 10.3182H31.37L31.1516 11.6179H31.2369C31.457 11.1776 31.7784 10.8313 32.201 10.5792C32.6236 10.3235 33.0746 10.1957 33.554 10.1957C33.657 10.1957 33.7741 10.1992 33.9055 10.2063C34.0369 10.2099 34.1435 10.2188 34.2251 10.233L33.9695 11.7564C33.9091 11.7386 33.799 11.7191 33.6392 11.6978C33.4794 11.6729 33.3143 11.6605 33.1438 11.6605C32.771 11.6605 32.4247 11.7404 32.1051 11.9002C31.7855 12.0565 31.5174 12.2749 31.3008 12.5554C31.0842 12.8324 30.9439 13.1484 30.88 13.5036L30.0597 18.5H28.467ZM37.6569 7.59091L35.8458 18.5H34.2531L36.0642 7.59091H37.6569ZM38.4945 21.5682C38.253 21.5682 38.0382 21.5487 37.85 21.5096C37.6618 21.4741 37.5215 21.435 37.4292 21.3924L38.0364 20.0874C38.3169 20.1655 38.5673 20.1957 38.7875 20.1779C39.0112 20.1602 39.2207 20.0678 39.416 19.9009C39.6113 19.734 39.8102 19.4712 40.0126 19.1126L40.3109 18.5746L38.7076 10.3182H40.3482L41.3603 16.6836H41.4455L44.5776 10.3182H46.3514L41.4455 19.5813C41.2147 20.0217 40.9519 20.3874 40.6571 20.6786C40.3659 20.9734 40.0392 21.1953 39.677 21.3445C39.3184 21.4936 38.9242 21.5682 38.4945 21.5682ZM52.3932 7.59091H54.3907L56.4681 16.071H56.596L61.4646 7.59091H63.4621L61.651 18.5H60.085L61.4007 10.6058H61.2994L56.7718 18.484H55.4667L53.5704 10.6005H53.4692L52.1482 18.5H50.5821L52.3932 7.59091ZM67.4212 18.6651C66.6186 18.6651 65.9545 18.4929 65.429 18.1484C64.907 17.8004 64.5412 17.3121 64.3317 16.6836C64.1222 16.0515 64.0884 15.3111 64.2305 14.4624C64.369 13.6243 64.6477 12.8857 65.0668 12.2464C65.4858 11.6072 66.0078 11.1083 66.6328 10.7496C67.2614 10.391 67.9556 10.2116 68.7156 10.2116C69.1772 10.2116 69.6122 10.288 70.0206 10.4407C70.4325 10.5934 70.7823 10.8331 71.07 11.1598C71.3576 11.4865 71.5565 11.9109 71.6665 12.4329C71.7802 12.9513 71.7766 13.5817 71.6559 14.3239L71.5653 14.8885H65.0561L65.2425 13.6953H70.1857C70.2603 13.2763 70.2408 12.9052 70.1271 12.582C70.0135 12.2553 69.8182 11.9979 69.5412 11.8097C69.2678 11.6214 68.9233 11.5273 68.5078 11.5273C68.0817 11.5273 67.6839 11.6392 67.3146 11.8629C66.9453 12.0866 66.6364 12.3725 66.3878 12.7205C66.1428 13.065 65.9883 13.4201 65.9244 13.7859L65.7379 14.8778C65.6456 15.4744 65.6616 15.9538 65.7859 16.3161C65.9137 16.6783 66.1374 16.9411 66.457 17.1044C66.7766 17.2678 67.1761 17.3494 67.6555 17.3494C67.9645 17.3494 68.2504 17.3068 68.5131 17.2216C68.7795 17.1328 69.0156 17.0032 69.2216 16.8327C69.4276 16.6587 69.5998 16.4421 69.7383 16.1829L71.1978 16.4545C71.0025 16.8984 70.7219 17.2873 70.3562 17.6211C69.9904 17.9513 69.5589 18.2088 69.0618 18.3935C68.5682 18.5746 68.0213 18.6651 67.4212 18.6651ZM72.7545 18.5L74.1182 10.3182H75.6469L75.4232 11.6499H75.5244C75.773 11.1989 76.1104 10.8473 76.5365 10.5952C76.9662 10.3395 77.4527 10.2116 77.996 10.2116C78.5358 10.2116 78.9708 10.3395 79.301 10.5952C79.6349 10.8509 79.8532 11.2024 79.9562 11.6499H80.0415C80.3042 11.2095 80.6718 10.8597 81.1441 10.6005C81.6164 10.3413 82.1473 10.2116 82.7368 10.2116C83.4719 10.2116 84.0365 10.446 84.4307 10.9148C84.8284 11.38 84.9491 12.0795 84.7929 13.0135L83.8767 18.5H82.2787L83.1736 13.1626C83.2623 12.6051 83.1771 12.2038 82.9179 11.9588C82.6586 11.7102 82.3195 11.5859 81.9005 11.5859C81.382 11.5859 80.9523 11.7457 80.6114 12.0653C80.2705 12.3814 80.061 12.788 79.9829 13.2852L79.104 18.5H77.5219L78.4328 13.0614C78.5038 12.614 78.4221 12.2571 78.1878 11.9908C77.9569 11.7209 77.6196 11.5859 77.1757 11.5859C76.8738 11.5859 76.5809 11.6658 76.2968 11.8256C76.0162 11.9854 75.7765 12.2056 75.5777 12.4862C75.3788 12.7667 75.2492 13.0898 75.1888 13.4556L74.3472 18.5H72.7545ZM86.1339 18.5L87.945 7.59091H89.5376L88.8718 11.6445H88.9677C89.0884 11.4741 89.2536 11.277 89.4631 11.0533C89.6761 10.8295 89.9513 10.6342 90.2887 10.4673C90.6261 10.2969 91.0487 10.2116 91.5565 10.2116C92.217 10.2116 92.7781 10.3786 93.2397 10.7124C93.7013 11.0462 94.0281 11.5273 94.2198 12.1559C94.4116 12.7844 94.4347 13.5408 94.2891 14.4251C94.1435 15.3093 93.87 16.0675 93.4688 16.6996C93.071 17.3281 92.5863 17.8129 92.0146 18.1538C91.4428 18.4911 90.8267 18.6598 90.1662 18.6598C89.669 18.6598 89.2766 18.5763 88.989 18.4094C88.7049 18.2425 88.4918 18.0472 88.3498 17.8235C88.2113 17.5998 88.1065 17.4009 88.0355 17.2269H87.9023L87.6893 18.5H86.1339ZM88.3764 14.4091C88.2841 14.9844 88.2841 15.4886 88.3764 15.9219C88.4723 16.3551 88.6587 16.6942 88.9357 16.9393C89.2163 17.1808 89.5838 17.3015 90.0384 17.3015C90.5142 17.3015 90.9332 17.1754 91.2955 16.9233C91.6577 16.6676 91.956 16.3214 92.1903 15.8846C92.4247 15.4478 92.5881 14.956 92.6804 14.4091C92.7656 13.8693 92.7638 13.3846 92.6751 12.9549C92.5863 12.5252 92.4016 12.1861 92.1211 11.9375C91.8441 11.6889 91.4659 11.5646 90.9865 11.5646C90.5249 11.5646 90.1147 11.6836 89.756 11.9215C89.3974 12.1594 89.1009 12.4915 88.8665 12.9176C88.6321 13.3437 88.4688 13.8409 88.3764 14.4091ZM98.9007 18.6651C98.0981 18.6651 97.434 18.4929 96.9085 18.1484C96.3865 17.8004 96.0207 17.3121 95.8112 16.6836C95.6017 16.0515 95.5679 15.3111 95.71 14.4624C95.8485 13.6243 96.1272 12.8857 96.5463 12.2464C96.9653 11.6072 97.4873 11.1083 98.1123 10.7496C98.7409 10.391 99.4351 10.2116 100.195 10.2116C100.657 10.2116 101.092 10.288 101.5 10.4407C101.912 10.5934 102.262 10.8331 102.549 11.1598C102.837 11.4865 103.036 11.9109 103.146 12.4329C103.26 12.9513 103.256 13.5817 103.135 14.3239L103.045 14.8885H96.5356L96.722 13.6953H101.665C101.74 13.2763 101.72 12.9052 101.607 12.582C101.493 12.2553 101.298 11.9979 101.021 11.8097C100.747 11.6214 100.403 11.5273 99.9873 11.5273C99.5612 11.5273 99.1634 11.6392 98.7941 11.8629C98.4248 12.0866 98.1159 12.3725 97.8673 12.7205C97.6222 13.065 97.4678 13.4201 97.4039 13.7859L97.2174 14.8778C97.1251 15.4744 97.1411 15.9538 97.2654 16.3161C97.3932 16.6783 97.6169 16.9411 97.9365 17.1044C98.2561 17.2678 98.6556 17.3494 99.135 17.3494C99.444 17.3494 99.7298 17.3068 99.9926 17.2216C100.259 17.1328 100.495 17.0032 100.701 16.8327C100.907 16.6587 101.079 16.4421 101.218 16.1829L102.677 16.4545C102.482 16.8984 102.201 17.2873 101.836 17.6211C101.47 17.9513 101.038 18.2088 100.541 18.3935C100.048 18.5746 99.5008 18.6651 98.9007 18.6651ZM104.229 18.5L105.592 10.3182H107.132L106.913 11.6179H106.999C107.219 11.1776 107.54 10.8313 107.963 10.5792C108.385 10.3235 108.836 10.1957 109.316 10.1957C109.419 10.1957 109.536 10.1992 109.667 10.2063C109.799 10.2099 109.905 10.2188 109.987 10.233L109.731 11.7564C109.671 11.7386 109.561 11.7191 109.401 11.6978C109.241 11.6729 109.076 11.6605 108.906 11.6605C108.533 11.6605 108.186 11.7404 107.867 11.9002C107.547 12.0565 107.279 12.2749 107.062 12.5554C106.846 12.8324 106.706 13.1484 106.642 13.5036L105.821 18.5H104.229ZM117.179 12.3157L115.693 12.5714C115.661 12.3832 115.595 12.2056 115.496 12.0387C115.4 11.8718 115.253 11.7369 115.054 11.6339C114.855 11.5273 114.59 11.4741 114.26 11.4741C113.802 11.4741 113.401 11.5788 113.056 11.7884C112.715 11.9979 112.52 12.2642 112.47 12.5874C112.424 12.8501 112.486 13.0632 112.657 13.2266C112.827 13.3864 113.127 13.5195 113.557 13.6261L114.814 13.9244C115.539 14.0984 116.057 14.37 116.37 14.7393C116.686 15.1051 116.796 15.581 116.7 16.1669C116.618 16.6534 116.405 17.0849 116.061 17.4613C115.72 17.8377 115.283 18.1325 114.75 18.3455C114.218 18.5586 113.625 18.6651 112.971 18.6651C112.041 18.6651 111.316 18.468 110.798 18.0739C110.279 17.6797 110.013 17.1222 109.999 16.4013L111.576 16.1669C111.604 16.5682 111.748 16.8718 112.007 17.0778C112.27 17.2802 112.634 17.3814 113.099 17.3814C113.632 17.3849 114.077 17.2731 114.436 17.0458C114.795 16.8185 114.999 16.5433 115.049 16.2202C115.091 15.968 115.034 15.7585 114.878 15.5916C114.725 15.4247 114.456 15.2969 114.068 15.2081L112.747 14.9045C112.009 14.7305 111.487 14.4499 111.181 14.0629C110.876 13.6758 110.773 13.1893 110.872 12.6033C110.951 12.1239 111.153 11.7067 111.48 11.3516C111.81 10.9929 112.227 10.7141 112.731 10.5153C113.236 10.3129 113.793 10.2116 114.404 10.2116C115.295 10.2116 115.965 10.4034 116.412 10.7869C116.86 11.1669 117.115 11.6765 117.179 12.3157ZM122.154 18.5L123.965 7.59091H127.854C128.699 7.59091 129.374 7.74538 129.878 8.05433C130.386 8.36328 130.734 8.78409 130.922 9.31676C131.114 9.84943 131.155 10.4513 131.045 11.1225C130.931 11.7937 130.69 12.3974 130.32 12.9336C129.954 13.4663 129.466 13.8888 128.855 14.2013C128.245 14.5103 127.518 14.6648 126.677 14.6648H123.997L124.226 13.2692H126.751C127.288 13.2692 127.739 13.1768 128.104 12.9922C128.474 12.804 128.763 12.5483 128.973 12.2251C129.182 11.8984 129.319 11.5309 129.383 11.1225C129.45 10.707 129.432 10.3413 129.329 10.0252C129.226 9.70561 129.022 9.45526 128.717 9.27415C128.415 9.09304 127.992 9.00249 127.449 9.00249H125.382L123.8 18.5H122.154ZM131.592 18.5L132.956 10.3182H134.495L134.277 11.6179H134.362C134.582 11.1776 134.903 10.8313 135.326 10.5792C135.749 10.3235 136.2 10.1957 136.679 10.1957C136.782 10.1957 136.899 10.1992 137.031 10.2063C137.162 10.2099 137.268 10.2188 137.35 10.233L137.094 11.7564C137.034 11.7386 136.924 11.7191 136.764 11.6978C136.604 11.6729 136.439 11.6605 136.269 11.6605C135.896 11.6605 135.55 11.7404 135.23 11.9002C134.911 12.0565 134.642 12.2749 134.426 12.5554C134.209 12.8324 134.069 13.1484 134.005 13.5036L133.185 18.5H131.592ZM137.378 18.5L138.742 10.3182H140.334L138.971 18.5H137.378ZM139.871 9.03977C139.594 9.03977 139.36 8.94744 139.168 8.76278C138.98 8.57457 138.893 8.35085 138.907 8.09162C138.921 7.82883 139.031 7.60511 139.237 7.42045C139.443 7.23224 139.683 7.13814 139.956 7.13814C140.233 7.13814 140.466 7.23224 140.654 7.42045C140.842 7.60511 140.931 7.82883 140.92 8.09162C140.906 8.35085 140.796 8.57457 140.59 8.76278C140.388 8.94744 140.148 9.03977 139.871 9.03977ZM149.476 10.3182L145.146 18.5H143.441L141.833 10.3182H143.479L144.501 16.6143H144.586L147.703 10.3182H149.476ZM149.61 18.5L150.973 10.3182H152.566L151.202 18.5H149.61ZM152.102 9.03977C151.825 9.03977 151.591 8.94744 151.399 8.76278C151.211 8.57457 151.124 8.35085 151.138 8.09162C151.153 7.82883 151.263 7.60511 151.469 7.42045C151.675 7.23224 151.914 7.13814 152.188 7.13814C152.465 7.13814 152.697 7.23224 152.885 7.42045C153.074 7.60511 153.162 7.82883 153.152 8.09162C153.138 8.35085 153.028 8.57457 152.822 8.76278C152.619 8.94744 152.379 9.03977 152.102 9.03977ZM156.749 7.59091L154.938 18.5H153.345L155.156 7.59091H156.749ZM160.585 18.6651C159.783 18.6651 159.119 18.4929 158.593 18.1484C158.071 17.8004 157.705 17.3121 157.496 16.6836C157.286 16.0515 157.252 15.3111 157.395 14.4624C157.533 13.6243 157.812 12.8857 158.231 12.2464C158.65 11.6072 159.172 11.1083 159.797 10.7496C160.425 10.391 161.12 10.2116 161.88 10.2116C162.341 10.2116 162.776 10.288 163.185 10.4407C163.597 10.5934 163.946 10.8331 164.234 11.1598C164.522 11.4865 164.721 11.9109 164.831 12.4329C164.944 12.9513 164.941 13.5817 164.82 14.3239L164.729 14.8885H158.22L158.407 13.6953H163.35C163.424 13.2763 163.405 12.9052 163.291 12.582C163.178 12.2553 162.982 11.9979 162.705 11.8097C162.432 11.6214 162.087 11.5273 161.672 11.5273C161.246 11.5273 160.848 11.6392 160.479 11.8629C160.109 12.0866 159.8 12.3725 159.552 12.7205C159.307 13.065 159.152 13.4201 159.088 13.7859L158.902 14.8778C158.81 15.4744 158.826 15.9538 158.95 16.3161C159.078 16.6783 159.301 16.9411 159.621 17.1044C159.941 17.2678 160.34 17.3494 160.82 17.3494C161.129 17.3494 161.414 17.3068 161.677 17.2216C161.944 17.1328 162.18 17.0032 162.386 16.8327C162.592 16.6587 162.764 16.4421 162.902 16.1829L164.362 16.4545C164.167 16.8984 163.886 17.2873 163.52 17.6211C163.154 17.9513 162.723 18.2088 162.226 18.3935C161.732 18.5746 161.185 18.6651 160.585 18.6651ZM168.832 21.7386C168.179 21.7386 167.632 21.6534 167.192 21.483C166.755 21.3125 166.41 21.087 166.158 20.8065C165.91 20.5259 165.737 20.2188 165.642 19.8849L167.112 19.3203C167.183 19.4766 167.282 19.6417 167.41 19.8157C167.538 19.9933 167.728 20.1442 167.98 20.2685C168.236 20.3928 168.585 20.4549 169.029 20.4549C169.633 20.4549 170.16 20.3075 170.611 20.0128C171.062 19.7216 171.341 19.2564 171.448 18.6172L171.698 17.0085H171.597C171.476 17.1825 171.309 17.3761 171.096 17.5891C170.883 17.8022 170.608 17.9869 170.271 18.1431C169.933 18.2994 169.514 18.3775 169.013 18.3775C168.367 18.3775 167.81 18.2266 167.341 17.9247C166.876 17.6193 166.542 17.1701 166.339 16.5771C166.137 15.9805 166.109 15.2472 166.254 14.3771C166.396 13.5071 166.666 12.7614 167.064 12.1399C167.465 11.5185 167.952 11.0426 168.523 10.7124C169.099 10.3786 169.715 10.2116 170.372 10.2116C170.88 10.2116 171.275 10.2969 171.56 10.4673C171.847 10.6342 172.06 10.8295 172.199 11.0533C172.337 11.277 172.438 11.4741 172.502 11.6445H172.62L172.838 10.3182H174.399L173.014 18.6811C172.9 19.3842 172.643 19.9613 172.241 20.4123C171.844 20.8633 171.348 21.1971 170.755 21.4137C170.166 21.6303 169.525 21.7386 168.832 21.7386ZM169.557 17.0565C170.011 17.0565 170.416 16.9499 170.771 16.7369C171.13 16.5202 171.428 16.2113 171.666 15.81C171.904 15.4052 172.069 14.9205 172.161 14.3558C172.254 13.8054 172.248 13.3207 172.146 12.9016C172.046 12.4826 171.853 12.1559 171.565 11.9215C171.281 11.6836 170.91 11.5646 170.452 11.5646C169.969 11.5646 169.55 11.6889 169.195 11.9375C168.839 12.1825 168.55 12.5163 168.326 12.9389C168.106 13.3615 167.952 13.8338 167.863 14.3558C167.778 14.892 167.779 15.3626 167.868 15.7674C167.96 16.1722 168.145 16.4883 168.422 16.7156C168.699 16.9428 169.077 17.0565 169.557 17.0565ZM178.676 18.6651C177.873 18.6651 177.209 18.4929 176.684 18.1484C176.162 17.8004 175.796 17.3121 175.587 16.6836C175.377 16.0515 175.343 15.3111 175.485 14.4624C175.624 13.6243 175.903 12.8857 176.322 12.2464C176.741 11.6072 177.263 11.1083 177.888 10.7496C178.516 10.391 179.21 10.2116 179.97 10.2116C180.432 10.2116 180.867 10.288 181.275 10.4407C181.687 10.5934 182.037 10.8331 182.325 11.1598C182.612 11.4865 182.811 11.9109 182.921 12.4329C183.035 12.9513 183.032 13.5817 182.911 14.3239L182.82 14.8885H176.311L176.497 13.6953H181.441C181.515 13.2763 181.496 12.9052 181.382 12.582C181.268 12.2553 181.073 11.9979 180.796 11.8097C180.523 11.6214 180.178 11.5273 179.763 11.5273C179.337 11.5273 178.939 11.6392 178.57 11.8629C178.2 12.0866 177.891 12.3725 177.643 12.7205C177.398 13.065 177.243 13.4201 177.179 13.7859L176.993 14.8778C176.9 15.4744 176.916 15.9538 177.041 16.3161C177.169 16.6783 177.392 16.9411 177.712 17.1044C178.032 17.2678 178.431 17.3494 178.91 17.3494C179.219 17.3494 179.505 17.3068 179.768 17.2216C180.034 17.1328 180.271 17.0032 180.476 16.8327C180.682 16.6587 180.855 16.4421 180.993 16.1829L182.453 16.4545C182.257 16.8984 181.977 17.2873 181.611 17.6211C181.245 17.9513 180.814 18.2088 180.317 18.3935C179.823 18.5746 179.276 18.6651 178.676 18.6651Z" fill="url(#paint1_linear_4678_2227)"/>
<defs>
<linearGradient id="paint0_linear_4678_2227" x1="0.5" y1="13.5" x2="194.5" y2="13.5" gradientUnits="userSpaceOnUse">
<stop stop-color="#FF025B"/>
<stop offset="1" stop-color="#3C73FF"/>
</linearGradient>
<linearGradient id="paint1_linear_4678_2227" x1="10.5" y1="13.5" x2="184.5" y2="13.5" gradientUnits="userSpaceOnUse">
<stop stop-color="#FF025B"/>
<stop offset="1" stop-color="#3C73FF"/>
</linearGradient>
</defs>
</svg>
