<svg width="17" height="16" viewBox="0 0 17 16" fill="none" xmlns="http://www.w3.org/2000/svg">
<g clip-path="url(#clip0_3789_1831)">
<path d="M5.01986 0.0560722C4.16866 0.0962322 3.58738 0.232072 3.07922 0.431752C2.5533 0.636712 2.10754 0.911752 1.66402 1.35687C1.2205 1.80199 0.947383 2.24807 0.743863 2.77479C0.546903 3.28407 0.413463 3.86583 0.375863 4.71751C0.338263 5.56919 0.329943 5.84295 0.334103 8.01543C0.338263 10.1879 0.347863 10.4602 0.389143 11.3137C0.429783 12.1647 0.565143 12.7458 0.764823 13.2542C0.970103 13.7801 1.24482 14.2257 1.6901 14.6694C2.13538 15.113 2.58114 15.3855 3.10914 15.5894C3.61794 15.786 4.19986 15.9201 5.05138 15.9574C5.9029 15.9946 6.17698 16.0033 8.34882 15.9991C10.5207 15.995 10.7941 15.9854 11.6474 15.9449C12.5007 15.9044 13.0787 15.7681 13.5872 15.5694C14.1131 15.3636 14.5591 15.0894 15.0024 14.6439C15.4458 14.1985 15.7187 13.7521 15.9221 13.225C16.1192 12.7162 16.2531 12.1343 16.2901 11.2834C16.3274 10.4295 16.3362 10.1569 16.332 7.98471C16.3279 5.81255 16.3181 5.54023 16.2776 4.68711C16.2371 3.83399 16.1016 3.25463 15.9021 2.74599C15.6965 2.22007 15.4221 1.77479 14.977 1.33079C14.5319 0.886792 14.0851 0.613992 13.5583 0.411112C13.0491 0.214152 12.4675 0.0799122 11.616 0.0431122C10.7645 0.00631216 10.4904 -0.00312784 8.31778 0.00103216C6.14514 0.00519216 5.87314 0.0144722 5.01986 0.0560722ZM5.1133 14.5182C4.3333 14.4842 3.90978 14.3546 3.62754 14.2462C3.25378 14.1022 2.98754 13.9281 2.70626 13.6495C2.42498 13.371 2.25218 13.1038 2.10626 12.7308C1.99666 12.4486 1.86466 12.0255 1.82818 11.2455C1.7885 10.4025 1.78018 10.1494 1.77554 8.01351C1.7709 5.87767 1.77906 5.62487 1.81602 4.78151C1.8493 4.00215 1.9797 3.57815 2.08802 3.29607C2.23202 2.92183 2.40546 2.65607 2.68466 2.37495C2.96386 2.09383 3.23026 1.92071 3.60354 1.77479C3.88546 1.66471 4.3085 1.53383 5.08818 1.49671C5.93186 1.45671 6.18466 1.44871 8.32018 1.44407C10.4557 1.43943 10.7091 1.44743 11.5531 1.48455C12.3325 1.51847 12.7567 1.64759 13.0384 1.75655C13.4123 1.90055 13.6784 2.07351 13.9595 2.35319C14.2407 2.63287 14.4139 2.89831 14.5599 3.27239C14.6701 3.55351 14.801 3.97639 14.8378 4.75655C14.8779 5.60023 14.8871 5.85319 14.8909 7.98855C14.8947 10.1239 14.8872 10.3775 14.8503 11.2206C14.8162 12.0006 14.6869 12.4242 14.5783 12.7068C14.4343 13.0804 14.2607 13.3468 13.9813 13.6278C13.7019 13.9087 13.4359 14.0818 13.0624 14.2278C12.7808 14.3377 12.3573 14.4689 11.5783 14.506C10.7346 14.5457 10.4818 14.554 8.34546 14.5586C6.20914 14.5633 5.95714 14.5546 5.11346 14.5182M11.6351 3.72439C11.6354 3.91428 11.692 4.0998 11.7978 4.2575C11.9035 4.4152 12.0537 4.538 12.2292 4.61036C12.4048 4.68271 12.5979 4.70138 12.784 4.66401C12.9702 4.62663 13.1411 4.53488 13.2751 4.40037C13.4091 4.26585 13.5003 4.09462 13.537 3.90831C13.5737 3.72201 13.5543 3.52901 13.4813 3.35372C13.4083 3.17843 13.2849 3.02872 13.1268 2.92354C12.9688 2.81835 12.783 2.76241 12.5931 2.76279C12.3386 2.7633 12.0947 2.86489 11.915 3.04521C11.7353 3.22554 11.6346 3.46984 11.6351 3.72439ZM4.22546 8.00807C4.22994 10.2769 6.0725 12.1119 8.34082 12.1076C10.6091 12.1033 12.4455 10.2609 12.4411 7.99207C12.4368 5.72327 10.5938 3.88775 8.32514 3.89223C6.0565 3.89671 4.22114 5.73959 4.22546 8.00807ZM5.66642 8.00519C5.66538 7.47777 5.82076 6.96187 6.11291 6.52276C6.40507 6.08364 6.82088 5.74101 7.30775 5.53821C7.79463 5.33541 8.33071 5.28154 8.84821 5.38341C9.3657 5.48528 9.84137 5.73832 10.2151 6.11053C10.5887 6.48274 10.8437 6.9574 10.9476 7.47449C11.0515 7.99157 10.9998 8.52787 10.7989 9.01554C10.598 9.50322 10.257 9.92038 9.81908 10.2143C9.38112 10.5082 8.86585 10.6656 8.33842 10.6666C7.98821 10.6674 7.64129 10.5991 7.31746 10.4657C6.99364 10.3324 6.69925 10.1365 6.45113 9.8894C6.203 9.64225 6.00599 9.34865 5.87135 9.02535C5.73671 8.70205 5.66707 8.3554 5.66642 8.00519Z" fill="#696969"/>
</g>
<defs>
<clipPath id="clip0_3789_1831">
<rect width="16" height="16" fill="white" transform="translate(0.33313)"/>
</clipPath>
</defs>
</svg>
