<svg width="410" height="88" viewBox="0 0 410 88" fill="none" xmlns="http://www.w3.org/2000/svg">
<path d="M100.757 64.5V21.1988H107.29V41.8768H107.819L125.981 21.1988H134.206L116.741 40.6928L134.269 64.5H126.404L112.407 45.154L107.29 51.0318V64.5H100.757ZM146.262 65.2189C144.204 65.2189 142.343 64.8383 140.68 64.0771C139.016 63.3019 137.699 62.1813 136.726 60.7154C135.767 59.2494 135.288 57.4523 135.288 55.3239C135.288 53.4915 135.641 51.9832 136.345 50.7992C137.05 49.6152 138.002 48.6779 139.2 47.9872C140.398 47.2965 141.737 46.775 143.217 46.4226C144.697 46.0702 146.205 45.8024 147.742 45.6192C149.687 45.3936 151.265 45.2104 152.478 45.0694C153.69 44.9144 154.571 44.6677 155.121 44.3294C155.67 43.9911 155.945 43.4414 155.945 42.6803V42.5323C155.945 40.6857 155.424 39.2551 154.381 38.2402C153.352 37.2253 151.815 36.7179 149.771 36.7179C147.643 36.7179 145.966 37.1901 144.739 38.1345C143.527 39.0648 142.688 40.1008 142.223 41.2425L136.282 39.8894C136.987 37.916 138.016 36.3232 139.369 35.111C140.736 33.8847 142.308 32.9967 144.084 32.447C145.86 31.8831 147.727 31.6012 149.687 31.6012C150.984 31.6012 152.358 31.7563 153.81 32.0664C155.276 32.3624 156.643 32.9121 157.911 33.7156C159.194 34.519 160.244 35.6678 161.062 37.1619C161.879 38.6419 162.288 40.5659 162.288 42.934V64.5H156.114V60.0599H155.861C155.452 60.8775 154.839 61.6809 154.021 62.4703C153.204 63.2596 152.153 63.915 150.871 64.4366C149.588 64.9581 148.052 65.2189 146.262 65.2189ZM147.636 60.1445C149.384 60.1445 150.878 59.7992 152.118 59.1085C153.373 58.4178 154.324 57.5157 154.973 56.4022C155.635 55.2745 155.966 54.0694 155.966 52.7867V48.6003C155.741 48.8259 155.304 49.0373 154.655 49.2346C154.021 49.4179 153.295 49.58 152.478 49.7209C151.66 49.8478 150.864 49.9676 150.088 50.0804C149.313 50.179 148.665 50.2636 148.143 50.3341C146.917 50.4891 145.796 50.7499 144.782 51.1164C143.781 51.4829 142.977 52.0114 142.371 52.7021C141.779 53.3787 141.483 54.2808 141.483 55.4084C141.483 56.973 142.061 58.1571 143.217 58.9605C144.373 59.7498 145.846 60.1445 147.636 60.1445ZM174.053 21.1988V64.5H167.731V21.1988H174.053ZM183.577 76.6785C182.633 76.6785 181.773 76.6009 180.998 76.4459C180.222 76.3049 179.644 76.1499 179.264 75.9807L180.786 70.8007C181.942 71.1108 182.971 71.2447 183.873 71.2024C184.775 71.1601 185.572 70.8218 186.262 70.1875C186.967 69.5532 187.587 68.5172 188.123 67.0795L188.905 64.9229L177.023 32.0241H183.789L192.013 57.2268H192.352L200.576 32.0241H207.363L193.98 68.8343C193.359 70.5258 192.57 71.9565 191.612 73.1264C190.653 74.3104 189.511 75.1984 188.186 75.7904C186.861 76.3825 185.325 76.6785 183.577 76.6785ZM218.848 65.2189C216.79 65.2189 214.93 64.8383 213.266 64.0771C211.603 63.3019 210.285 62.1813 209.313 60.7154C208.354 59.2494 207.875 57.4523 207.875 55.3239C207.875 53.4915 208.227 51.9832 208.932 50.7992C209.637 49.6152 210.588 48.6779 211.786 47.9872C212.984 47.2965 214.323 46.775 215.804 46.4226C217.284 46.0702 218.792 45.8024 220.328 45.6192C222.273 45.3936 223.852 45.2104 225.064 45.0694C226.276 44.9144 227.157 44.6677 227.707 44.3294C228.257 43.9911 228.532 43.4414 228.532 42.6803V42.5323C228.532 40.6857 228.01 39.2551 226.967 38.2402C225.938 37.2253 224.402 36.7179 222.358 36.7179C220.229 36.7179 218.552 37.1901 217.326 38.1345C216.114 39.0648 215.275 40.1008 214.81 41.2425L208.869 39.8894C209.573 37.916 210.602 36.3232 211.955 35.111C213.323 33.8847 214.894 32.9967 216.67 32.447C218.446 31.8831 220.314 31.6012 222.273 31.6012C223.57 31.6012 224.944 31.7563 226.396 32.0664C227.862 32.3624 229.229 32.9121 230.498 33.7156C231.781 34.519 232.831 35.6678 233.648 37.1619C234.466 38.6419 234.875 40.5659 234.875 42.934V64.5H228.701V60.0599H228.447C228.038 60.8775 227.425 61.6809 226.608 62.4703C225.79 63.2596 224.74 63.915 223.457 64.4366C222.175 64.9581 220.638 65.2189 218.848 65.2189ZM220.222 60.1445C221.97 60.1445 223.464 59.7992 224.705 59.1085C225.959 58.4178 226.911 57.5157 227.559 56.4022C228.222 55.2745 228.553 54.0694 228.553 52.7867V48.6003C228.327 48.8259 227.89 49.0373 227.242 49.2346C226.608 49.4179 225.882 49.58 225.064 49.7209C224.247 49.8478 223.45 49.9676 222.675 50.0804C221.9 50.179 221.251 50.2636 220.73 50.3341C219.504 50.4891 218.383 50.7499 217.368 51.1164C216.367 51.4829 215.564 52.0114 214.958 52.7021C214.366 53.3787 214.07 54.2808 214.07 55.4084C214.07 56.973 214.648 58.1571 215.804 58.9605C216.959 59.7498 218.432 60.1445 220.222 60.1445ZM246.64 45.2174V64.5H240.318V32.0241H246.386V37.3099H246.788C247.535 35.5902 248.705 34.2089 250.298 33.1658C251.904 32.1228 253.927 31.6012 256.366 31.6012C258.579 31.6012 260.517 32.0664 262.18 32.9967C263.843 33.9129 265.133 35.2801 266.049 37.0985C266.965 38.9168 267.423 41.165 267.423 43.8431V64.5H261.102V44.6043C261.102 42.2503 260.489 40.4109 259.262 39.0859C258.036 37.7469 256.352 37.0773 254.209 37.0773C252.743 37.0773 251.439 37.3945 250.298 38.0288C249.17 38.6631 248.275 39.5934 247.612 40.8197C246.964 42.0319 246.64 43.4978 246.64 45.2174ZM282.376 65.2189C280.318 65.2189 278.457 64.8383 276.794 64.0771C275.131 63.3019 273.813 62.1813 272.84 60.7154C271.882 59.2494 271.403 57.4523 271.403 55.3239C271.403 53.4915 271.755 51.9832 272.46 50.7992C273.165 49.6152 274.116 48.6779 275.314 47.9872C276.512 47.2965 277.851 46.775 279.331 46.4226C280.811 46.0702 282.32 45.8024 283.856 45.6192C285.801 45.3936 287.38 45.2104 288.592 45.0694C289.804 44.9144 290.685 44.6677 291.235 44.3294C291.785 43.9911 292.059 43.4414 292.059 42.6803V42.5323C292.059 40.6857 291.538 39.2551 290.495 38.2402C289.466 37.2253 287.93 36.7179 285.886 36.7179C283.757 36.7179 282.08 37.1901 280.854 38.1345C279.641 39.0648 278.803 40.1008 278.338 41.2425L272.396 39.8894C273.101 37.916 274.13 36.3232 275.483 35.111C276.851 33.8847 278.422 32.9967 280.198 32.447C281.974 31.8831 283.842 31.6012 285.801 31.6012C287.098 31.6012 288.472 31.7563 289.924 32.0664C291.39 32.3624 292.757 32.9121 294.026 33.7156C295.308 34.519 296.359 35.6678 297.176 37.1619C297.994 38.6419 298.402 40.5659 298.402 42.934V64.5H292.229V60.0599H291.975C291.566 60.8775 290.953 61.6809 290.135 62.4703C289.318 63.2596 288.268 63.915 286.985 64.4366C285.702 64.9581 284.166 65.2189 282.376 65.2189ZM283.75 60.1445C285.498 60.1445 286.992 59.7992 288.233 59.1085C289.487 58.4178 290.439 57.5157 291.087 56.4022C291.749 55.2745 292.081 54.0694 292.081 52.7867V48.6003C291.855 48.8259 291.418 49.0373 290.77 49.2346C290.135 49.4179 289.41 49.58 288.592 49.7209C287.774 49.8478 286.978 49.9676 286.203 50.0804C285.428 50.179 284.779 50.2636 284.258 50.3341C283.031 50.4891 281.911 50.7499 280.896 51.1164C279.895 51.4829 279.092 52.0114 278.486 52.7021C277.894 53.3787 277.598 54.2808 277.598 55.4084C277.598 56.973 278.175 58.1571 279.331 58.9605C280.487 59.7498 281.96 60.1445 283.75 60.1445ZM341.967 42.8494C341.967 47.4727 341.121 51.4476 339.43 54.7741C337.738 58.0866 335.42 60.6378 332.474 62.428C329.542 64.204 326.208 65.092 322.473 65.092C318.723 65.092 315.376 64.204 312.43 62.428C309.498 60.6378 307.186 58.0795 305.495 54.753C303.803 51.4265 302.958 47.4586 302.958 42.8494C302.958 38.2261 303.803 34.2582 305.495 30.9458C307.186 27.6193 309.498 25.068 312.43 23.292C315.376 21.5019 318.723 20.6068 322.473 20.6068C326.208 20.6068 329.542 21.5019 332.474 23.292C335.42 25.068 337.738 27.6193 339.43 30.9458C341.121 34.2582 341.967 38.2261 341.967 42.8494ZM335.497 42.8494C335.497 39.3255 334.926 36.3584 333.784 33.9481C332.657 31.5237 331.106 29.6913 329.133 28.4509C327.174 27.1964 324.954 26.5692 322.473 26.5692C319.978 26.5692 317.751 27.1964 315.792 28.4509C313.832 29.6913 312.282 31.5237 311.14 33.9481C310.013 36.3584 309.449 39.3255 309.449 42.8494C309.449 46.3733 310.013 49.3474 311.14 51.7718C312.282 54.1821 313.832 56.0145 315.792 57.269C317.751 58.5094 319.978 59.1296 322.473 59.1296C324.954 59.1296 327.174 58.5094 329.133 57.269C331.106 56.0145 332.657 54.1821 333.784 51.7718C334.926 49.3474 335.497 46.3733 335.497 42.8494ZM352.95 45.2174V64.5H346.628V32.0241H352.696V37.3099H353.098C353.845 35.5902 355.015 34.2089 356.607 33.1658C358.214 32.1228 360.237 31.6012 362.676 31.6012C364.889 31.6012 366.827 32.0664 368.49 32.9967C370.153 33.9129 371.443 35.2801 372.359 37.0985C373.275 38.9168 373.733 41.165 373.733 43.8431V64.5H367.412V44.6043C367.412 42.2503 366.798 40.4109 365.572 39.0859C364.346 37.7469 362.661 37.0773 360.519 37.0773C359.053 37.0773 357.749 37.3945 356.607 38.0288C355.48 38.6631 354.585 39.5934 353.922 40.8197C353.274 42.0319 352.95 43.4978 352.95 45.2174ZM393.232 65.1554C390.032 65.1554 387.276 64.4718 384.965 63.1046C382.667 61.7232 380.891 59.7851 379.637 57.2902C378.396 54.7812 377.776 51.8423 377.776 48.4735C377.776 45.147 378.396 42.2151 379.637 39.6779C380.891 37.1407 382.639 35.1603 384.88 33.7367C387.135 32.3131 389.771 31.6012 392.788 31.6012C394.62 31.6012 396.396 31.9043 398.116 32.5104C399.835 33.1165 401.379 34.0679 402.746 35.3647C404.113 36.6615 405.192 38.3459 405.981 40.4179C406.77 42.4759 407.165 44.9778 407.165 47.9238V50.1649H381.349V45.4289H400.97C400.97 43.7656 400.632 42.2926 399.955 41.0099C399.279 39.7132 398.327 38.6912 397.101 37.9442C395.889 37.1971 394.465 36.8236 392.83 36.8236C391.054 36.8236 389.503 37.2606 388.178 38.1345C386.868 38.9943 385.853 40.1219 385.134 41.5174C384.429 42.8987 384.077 44.3999 384.077 46.0209V49.7209C384.077 51.8916 384.457 53.7381 385.218 55.2604C385.994 56.7827 387.072 57.9456 388.453 58.7491C389.835 59.5384 391.449 59.9331 393.295 59.9331C394.493 59.9331 395.586 59.7639 396.572 59.4256C397.559 59.0733 398.412 58.5517 399.131 57.861C399.849 57.1704 400.399 56.3176 400.78 55.3027L406.763 56.381C406.284 58.143 405.424 59.6864 404.184 61.0114C402.958 62.3223 401.414 63.3442 399.553 64.0771C397.707 64.796 395.6 65.1554 393.232 65.1554Z" fill="#D9D9D9"/>
<path d="M54.1118 31.5917C64.2373 48.861 63.2052 68.1124 51.8055 74.5934C40.4058 81.0743 22.958 72.3314 12.8325 55.0603C2.707 37.7892 3.73917 18.5395 15.1388 12.0585C26.5385 5.57759 43.9882 14.3224 54.1118 31.5917Z" stroke="#D9D9D9" stroke-width="7.22111" stroke-linecap="round" stroke-linejoin="round"/>
<path d="M33.4731 31.5917C23.3476 48.8609 24.3798 68.1124 35.7795 74.5934C47.1791 81.0743 64.6288 72.3296 74.7543 55.0603C84.8798 37.791 83.8476 18.5395 72.4461 12.0585C61.0501 5.57759 43.5986 14.3224 33.4731 31.5917Z" stroke="#D9D9D9" stroke-width="7.22111" stroke-linecap="round" stroke-linejoin="round"/>
<path d="M43.5479 18.6758C47.4804 22.1203 51.1195 26.4836 54.1152 31.5944C64.2389 48.8636 63.2067 68.1151 51.807 74.5961C49.4274 75.95 46.7837 76.6397 43.997 76.7263" stroke="#D9D9D9" stroke-width="7.22111" stroke-linecap="round" stroke-linejoin="round"/>
</svg>
