<svg width="218" height="24" viewBox="0 0 218 24" fill="none" xmlns="http://www.w3.org/2000/svg">
<rect x="0.449219" y="0.450195" width="217" height="23" rx="11.5" fill="white"/>
<rect x="0.449219" y="0.450195" width="217" height="23" rx="11.5" stroke="url(#paint0_linear_5213_2349)" stroke-width="0.900391"/>
<path d="M11.9144 16.9502L13.5451 7.12775H15.0271L13.6075 15.6744H18.0583L17.8472 16.9502H11.9144ZM19.4228 16.9502L20.6506 9.58336H22.0846L20.8568 16.9502H19.4228ZM21.6673 8.4323C21.4179 8.4323 21.2069 8.34916 21.0343 8.1829C20.8648 8.01343 20.7865 7.812 20.7992 7.57859C20.812 7.34198 20.9112 7.14054 21.0966 6.97428C21.2821 6.80481 21.4979 6.72008 21.7441 6.72008C21.9935 6.72008 22.2029 6.80481 22.3724 6.97428C22.5418 7.14054 22.6218 7.34198 22.6122 7.57859C22.5994 7.812 22.5003 8.01343 22.3148 8.1829C22.1326 8.34916 21.9167 8.4323 21.6673 8.4323ZM22.7908 16.9502L24.0186 9.58336H25.3951L25.1937 10.7824H25.2848C25.5086 10.3763 25.8124 10.0598 26.1961 9.83276C26.583 9.60255 27.021 9.48744 27.5102 9.48744C27.9962 9.48744 28.3879 9.60255 28.6853 9.83276C28.9858 10.063 29.1825 10.3795 29.2752 10.7824H29.3519C29.5885 10.3859 29.9195 10.071 30.3447 9.83756C30.77 9.60415 31.248 9.48744 31.7788 9.48744C32.4406 9.48744 32.949 9.69847 33.3039 10.1205C33.662 10.5394 33.7707 11.1693 33.6301 12.0102L32.8051 16.9502H31.3663L32.172 12.1445C32.252 11.6425 32.1752 11.2812 31.9418 11.0606C31.7084 10.8367 31.4031 10.7248 31.0258 10.7248C30.5589 10.7248 30.1721 10.8687 29.8651 11.1565C29.5581 11.4411 29.3695 11.8072 29.2992 12.2548L28.5078 16.9502H27.0834L27.9035 12.0534C27.9674 11.6505 27.8939 11.3291 27.6829 11.0893C27.475 10.8463 27.1713 10.7248 26.7716 10.7248C26.4998 10.7248 26.236 10.7968 25.9802 10.9407C25.7277 11.0845 25.5118 11.2828 25.3328 11.5354C25.1537 11.788 25.037 12.0789 24.9827 12.4083L24.2249 16.9502H22.7908ZM34.7224 16.9502L35.9502 9.58336H37.3842L36.1564 16.9502H34.7224ZM36.9669 8.4323C36.7175 8.4323 36.5065 8.34916 36.3339 8.1829C36.1644 8.01343 36.0861 7.812 36.0989 7.57859C36.1116 7.34198 36.2108 7.14054 36.3962 6.97428C36.5817 6.80481 36.7975 6.72008 37.0437 6.72008C37.2931 6.72008 37.5025 6.80481 37.672 6.97428C37.8414 7.14054 37.9214 7.34198 37.9118 7.57859C37.899 7.812 37.7999 8.01343 37.6144 8.1829C37.4322 8.34916 37.2163 8.4323 36.9669 8.4323ZM42.7523 9.58336L42.5652 10.7344H38.5413L38.7283 9.58336H42.7523ZM40.0952 7.81839H41.5293L40.3686 14.7871C40.3238 15.0653 40.3318 15.2748 40.3926 15.4154C40.4533 15.5529 40.546 15.6473 40.6707 15.6984C40.7986 15.7464 40.9409 15.7704 41.0976 15.7704C41.2127 15.7704 41.3134 15.7624 41.3998 15.7464C41.4861 15.7304 41.5548 15.7176 41.606 15.708L41.6827 16.8926C41.5868 16.9246 41.4573 16.9566 41.2942 16.9886C41.1344 17.0237 40.9393 17.0429 40.7091 17.0461C40.3318 17.0525 39.9913 16.9854 39.6875 16.8447C39.3838 16.7008 39.1568 16.4834 39.0065 16.1924C38.8562 15.8982 38.8194 15.5289 38.8962 15.0845L40.0952 7.81839ZM46.1875 17.0989C45.4649 17.0989 44.8669 16.9438 44.3937 16.6337C43.9237 16.3203 43.5944 15.8807 43.4057 15.3147C43.2171 14.7456 43.1867 14.0789 43.3146 13.3147C43.4393 12.5602 43.6903 11.8951 44.0676 11.3196C44.4449 10.744 44.9149 10.2948 45.4777 9.97185C46.0436 9.64891 46.6687 9.48744 47.3529 9.48744C47.7686 9.48744 48.1603 9.55618 48.528 9.69367C48.8989 9.83116 49.2138 10.047 49.4728 10.3411C49.7318 10.6353 49.9109 11.0174 50.01 11.4874C50.1123 11.9542 50.1091 12.5218 50.0004 13.19L49.9189 13.6984H44.058L44.2259 12.6241H48.6767C48.7438 12.2468 48.7262 11.9127 48.6239 11.6217C48.5216 11.3275 48.3457 11.0957 48.0963 10.9263C47.8501 10.7568 47.54 10.6721 47.1659 10.6721C46.7822 10.6721 46.4241 10.7728 46.0916 10.9742C45.759 11.1757 45.4809 11.4331 45.257 11.7464C45.0364 12.0566 44.8973 12.3763 44.8398 12.7056L44.6719 13.6888C44.5888 14.226 44.6032 14.6577 44.7151 14.9838C44.8302 15.3099 45.0316 15.5465 45.3194 15.6936C45.6071 15.8407 45.9669 15.9142 46.3985 15.9142C46.6767 15.9142 46.9341 15.8759 47.1707 15.7991C47.4105 15.7192 47.6231 15.6025 47.8086 15.449C47.994 15.2923 48.1491 15.0973 48.2738 14.8639L49.5879 15.1085C49.4121 15.5082 49.1595 15.8583 48.8301 16.1588C48.5008 16.4562 48.1123 16.688 47.6647 16.8543C47.2202 17.0173 46.7278 17.0989 46.1875 17.0989ZM53.733 17.0941C53.135 17.0941 52.6283 16.9422 52.2126 16.6384C51.8001 16.3315 51.5076 15.8951 51.3349 15.3291C51.1654 14.76 51.1463 14.0773 51.2774 13.2812C51.4116 12.485 51.6594 11.804 52.0208 11.238C52.3821 10.6721 52.8201 10.2388 53.3349 9.93828C53.8497 9.63772 54.4044 9.48744 54.9991 9.48744C55.4564 9.48744 55.8113 9.56418 56.0639 9.71765C56.3197 9.86793 56.5083 10.0438 56.6298 10.2452C56.7513 10.4467 56.8424 10.6241 56.9032 10.7776H56.9847L57.5938 7.12775H59.0279L57.3972 16.9502H55.9967L56.1934 15.8039H56.0735C55.9616 15.9606 55.8065 16.1397 55.6082 16.3411C55.4132 16.5425 55.1638 16.7184 54.8601 16.8687C54.5563 17.0189 54.1806 17.0941 53.733 17.0941ZM54.2174 15.8711C54.6298 15.8711 54.9991 15.7624 55.3253 15.5449C55.6546 15.3243 55.928 15.019 56.1454 14.6289C56.366 14.2388 56.5195 13.7848 56.6058 13.2668C56.6922 12.7552 56.6906 12.3076 56.601 11.9239C56.5115 11.5402 56.3389 11.2412 56.0831 11.027C55.8273 10.8128 55.4899 10.7057 55.0711 10.7057C54.6394 10.7057 54.2637 10.8176 53.944 11.0414C53.6243 11.2652 53.3621 11.5706 53.1574 11.9574C52.956 12.3443 52.8153 12.7808 52.7354 13.2668C52.6522 13.7592 52.649 14.202 52.7258 14.5953C52.8025 14.9886 52.964 15.3003 53.2102 15.5305C53.4564 15.7576 53.7921 15.8711 54.2174 15.8711ZM67.6801 9.58336L67.493 10.7344H63.4691L63.6561 9.58336H67.6801ZM65.023 7.81839H66.4571L65.2964 14.7871C65.2516 15.0653 65.2596 15.2748 65.3204 15.4154C65.3811 15.5529 65.4739 15.6473 65.5986 15.6984C65.7264 15.7464 65.8687 15.7704 66.0254 15.7704C66.1405 15.7704 66.2412 15.7624 66.3276 15.7464C66.4139 15.7304 66.4826 15.7176 66.5338 15.708L66.6105 16.8926C66.5146 16.9246 66.3851 16.9566 66.222 16.9886C66.0622 17.0237 65.8671 17.0429 65.6369 17.0461C65.2596 17.0525 64.9191 16.9854 64.6153 16.8447C64.3116 16.7008 64.0846 16.4834 63.9343 16.1924C63.784 15.8982 63.7473 15.5289 63.824 15.0845L65.023 7.81839ZM71.0961 17.0989C70.3959 17.0989 69.8107 16.939 69.3407 16.6193C68.8707 16.2963 68.5398 15.8455 68.3479 15.2668C68.1593 14.6848 68.1273 14.0086 68.252 13.238C68.3735 12.4834 68.6181 11.8247 68.9858 11.262C69.3567 10.6993 69.8203 10.2628 70.3767 9.95266C70.9362 9.64251 71.5581 9.48744 72.2424 9.48744C72.9426 9.48744 73.5261 9.64891 73.993 9.97185C74.463 10.2948 74.7939 10.7472 74.9858 11.3291C75.1776 11.9111 75.2112 12.5889 75.0865 13.3627C74.965 14.1109 74.7172 14.7664 74.3431 15.3291C73.9722 15.8887 73.5085 16.3235 72.9522 16.6337C72.3958 16.9438 71.7771 17.0989 71.0961 17.0989ZM71.1776 15.8951C71.6381 15.8951 72.0393 15.7735 72.3815 15.5305C72.7268 15.2875 73.0082 14.9646 73.2256 14.5617C73.443 14.1589 73.5917 13.7176 73.6716 13.238C73.7452 12.7744 73.7436 12.3507 73.6668 11.967C73.5933 11.5801 73.4334 11.27 73.1872 11.0366C72.941 10.8032 72.5989 10.6865 72.1608 10.6865C71.7004 10.6865 71.2959 10.8096 70.9474 11.0558C70.6021 11.2988 70.3207 11.6233 70.1033 12.0294C69.8891 12.4355 69.7436 12.8783 69.6669 13.3579C69.5933 13.8183 69.5933 14.242 69.6669 14.6289C69.7404 15.0126 69.9003 15.3195 70.1465 15.5497C70.3927 15.7799 70.7364 15.8951 71.1776 15.8951ZM84.4053 9.58336L84.2183 10.7344H80.0552L80.2423 9.58336H84.4053ZM80.156 16.9502L81.5277 8.72965C81.598 8.26923 81.7595 7.88714 82.0121 7.58338C82.2647 7.27643 82.57 7.04782 82.9281 6.89754C83.2862 6.74406 83.6603 6.66732 84.0504 6.66732C84.3382 6.66732 84.5796 6.69131 84.7746 6.73927C84.9729 6.78403 85.1167 6.8256 85.2063 6.86397L84.6835 8.02463C84.6195 8.00544 84.538 7.98306 84.4389 7.95748C84.3398 7.9287 84.2151 7.91431 84.0648 7.91431C83.7163 7.91431 83.4525 8.00064 83.2734 8.1733C83.0976 8.34597 82.9793 8.59536 82.9185 8.9215L81.59 16.9502H80.156ZM84.6571 16.9502L85.8849 9.58336H87.319L86.0912 16.9502H84.6571ZM86.9017 8.4323C86.6523 8.4323 86.4413 8.34916 86.2686 8.1829C86.0991 8.01343 86.0208 7.812 86.0336 7.57859C86.0464 7.34198 86.1455 7.14054 86.331 6.97428C86.5164 6.80481 86.7322 6.72008 86.9784 6.72008C87.2278 6.72008 87.4373 6.80481 87.6067 6.97428C87.7762 7.14054 87.8561 7.34198 87.8465 7.57859C87.8337 7.812 87.7346 8.01343 87.5492 8.1829C87.3669 8.34916 87.1511 8.4323 86.9017 8.4323ZM88.0204 16.9502L89.2482 9.58336H90.6343L90.4376 10.7536H90.5144C90.7126 10.3571 91.002 10.0454 91.3825 9.81837C91.763 9.58816 92.169 9.47305 92.6007 9.47305C92.6934 9.47305 92.7989 9.47625 92.9172 9.48264C93.0355 9.48584 93.1314 9.49384 93.205 9.50662L92.9748 10.8783C92.9204 10.8623 92.8213 10.8447 92.6774 10.8256C92.5335 10.8032 92.3849 10.792 92.2314 10.792C91.8957 10.792 91.5839 10.8639 91.2961 11.0078C91.0084 11.1485 90.767 11.3451 90.5719 11.5977C90.3769 11.8471 90.2506 12.1317 90.193 12.4514L89.4544 16.9502H88.0204ZM99.6809 11.3819L98.3428 11.6121C98.314 11.4427 98.2549 11.2828 98.1654 11.1325C98.079 10.9822 97.9463 10.8607 97.7673 10.768C97.5882 10.6721 97.35 10.6241 97.0527 10.6241C96.6402 10.6241 96.2789 10.7184 95.9687 10.9071C95.6618 11.0957 95.4859 11.3355 95.4412 11.6265C95.3996 11.8631 95.4556 12.055 95.609 12.202C95.7625 12.3459 96.0327 12.4658 96.4196 12.5617L97.5515 12.8303C98.2037 12.987 98.6706 13.2316 98.9519 13.5641C99.2365 13.8935 99.3356 14.3219 99.2493 14.8495C99.1758 15.2875 98.9839 15.676 98.6738 16.015C98.3668 16.3539 97.9735 16.6193 97.4939 16.8111C97.0143 17.003 96.4803 17.0989 95.892 17.0989C95.0543 17.0989 94.402 16.9214 93.9352 16.5665C93.4684 16.2116 93.2286 15.7096 93.2158 15.0605L94.6354 14.8495C94.661 15.2108 94.7905 15.4842 95.0239 15.6696C95.2605 15.8519 95.5883 15.943 96.0071 15.943C96.4867 15.9462 96.888 15.8455 97.2109 15.6409C97.5339 15.4362 97.7177 15.1884 97.7625 14.8975C97.8009 14.6704 97.7497 14.4818 97.609 14.3315C97.4715 14.1812 97.2285 14.0661 96.88 13.9862L95.6906 13.7128C95.0255 13.5561 94.5555 13.3035 94.2805 12.955C94.0055 12.6065 93.9128 12.1685 94.0023 11.6409C94.0727 11.2092 94.2549 10.8336 94.5491 10.5138C94.8465 10.1909 95.2222 9.93987 95.6762 9.76082C96.1302 9.57857 96.6322 9.48744 97.1822 9.48744C97.9847 9.48744 98.5874 9.6601 98.9903 10.0054C99.3932 10.3475 99.6234 10.8064 99.6809 11.3819ZM105.138 9.58336L104.951 10.7344H100.927L101.114 9.58336H105.138ZM102.481 7.81839H103.915L102.754 14.7871C102.709 15.0653 102.717 15.2748 102.778 15.4154C102.839 15.5529 102.932 15.6473 103.056 15.6984C103.184 15.7464 103.326 15.7704 103.483 15.7704C103.598 15.7704 103.699 15.7624 103.785 15.7464C103.872 15.7304 103.94 15.7176 103.991 15.708L104.068 16.8926C103.972 16.9246 103.843 16.9566 103.68 16.9886C103.52 17.0237 103.325 17.0429 103.095 17.0461C102.717 17.0525 102.377 16.9854 102.073 16.8447C101.769 16.7008 101.542 16.4834 101.392 16.1924C101.242 15.8982 101.205 15.5289 101.282 15.0845L102.481 7.81839ZM114.409 7.12775L112.778 16.9502H111.291L112.672 8.61455H112.615L110.011 10.1493L110.25 8.72965L112.965 7.12775H114.409ZM118.831 17.1133C118.073 17.1133 117.459 16.915 116.989 16.5185C116.519 16.1189 116.206 15.5401 116.049 14.7824C115.892 14.0246 115.9 13.1117 116.073 12.0438C116.249 10.979 116.541 10.0694 116.951 9.31478C117.363 8.56019 117.87 7.98466 118.471 7.58818C119.075 7.1917 119.753 6.99346 120.504 6.99346C121.253 6.99346 121.863 7.1933 122.337 7.59297C122.81 7.98945 123.128 8.56339 123.291 9.31478C123.457 10.0662 123.451 10.9758 123.272 12.0438C123.093 13.1149 122.799 14.0278 122.389 14.7824C121.98 15.5369 121.473 16.1141 120.869 16.5137C120.265 16.9134 119.585 17.1133 118.831 17.1133ZM119.042 15.8327C119.71 15.8327 120.285 15.5082 120.768 14.8591C121.251 14.21 121.595 13.2716 121.799 12.0438C121.934 11.2284 121.961 10.5394 121.881 9.97664C121.804 9.4107 121.63 8.98225 121.358 8.69129C121.09 8.39712 120.735 8.25004 120.293 8.25004C119.635 8.25004 119.062 8.57778 118.576 9.23325C118.094 9.88552 117.752 10.8224 117.55 12.0438C117.413 12.8623 117.382 13.5545 117.459 14.1205C117.536 14.6832 117.708 15.1101 117.977 15.4011C118.246 15.6888 118.6 15.8327 119.042 15.8327ZM127.549 17.1133C126.791 17.1133 126.177 16.915 125.707 16.5185C125.237 16.1189 124.924 15.5401 124.767 14.7824C124.61 14.0246 124.618 13.1117 124.791 12.0438C124.967 10.979 125.259 10.0694 125.669 9.31478C126.081 8.56019 126.588 7.98466 127.189 7.58818C127.793 7.1917 128.471 6.99346 129.223 6.99346C129.971 6.99346 130.582 7.1933 131.055 7.59297C131.528 7.98945 131.846 8.56339 132.009 9.31478C132.175 10.0662 132.169 10.9758 131.99 12.0438C131.811 13.1149 131.517 14.0278 131.107 14.7824C130.698 15.5369 130.191 16.1141 129.587 16.5137C128.983 16.9134 128.303 17.1133 127.549 17.1133ZM127.76 15.8327C128.428 15.8327 129.004 15.5082 129.486 14.8591C129.969 14.21 130.313 13.2716 130.518 12.0438C130.652 11.2284 130.679 10.5394 130.599 9.97664C130.522 9.4107 130.348 8.98225 130.076 8.69129C129.808 8.39712 129.453 8.25004 129.012 8.25004C128.353 8.25004 127.781 8.57778 127.295 9.23325C126.812 9.88552 126.47 10.8224 126.268 12.0438C126.131 12.8623 126.1 13.5545 126.177 14.1205C126.254 14.6832 126.426 15.1101 126.695 15.4011C126.964 15.6888 127.319 15.8327 127.76 15.8327ZM136.267 17.1133C135.509 17.1133 134.895 16.915 134.425 16.5185C133.955 16.1189 133.642 15.5401 133.485 14.7824C133.328 14.0246 133.336 13.1117 133.509 12.0438C133.685 10.979 133.978 10.0694 134.387 9.31478C134.799 8.56019 135.306 7.98466 135.907 7.58818C136.512 7.1917 137.189 6.99346 137.941 6.99346C138.689 6.99346 139.3 7.1933 139.773 7.59297C140.246 7.98945 140.564 8.56339 140.727 9.31478C140.894 10.0662 140.887 10.9758 140.708 12.0438C140.529 13.1149 140.235 14.0278 139.826 14.7824C139.416 15.5369 138.91 16.1141 138.305 16.5137C137.701 16.9134 137.021 17.1133 136.267 17.1133ZM136.478 15.8327C137.146 15.8327 137.722 15.5082 138.205 14.8591C138.687 14.21 139.031 13.2716 139.236 12.0438C139.37 11.2284 139.397 10.5394 139.317 9.97664C139.241 9.4107 139.066 8.98225 138.794 8.69129C138.526 8.39712 138.171 8.25004 137.73 8.25004C137.071 8.25004 136.499 8.57778 136.013 9.23325C135.53 9.88552 135.188 10.8224 134.986 12.0438C134.849 12.8623 134.818 13.5545 134.895 14.1205C134.972 14.6832 135.145 15.1101 135.413 15.4011C135.682 15.6888 136.037 15.8327 136.478 15.8327ZM145.188 16.9502L146.415 9.58336H147.792L147.591 10.7824H147.682C147.905 10.3763 148.209 10.0598 148.593 9.83276C148.98 9.60255 149.418 9.48744 149.907 9.48744C150.393 9.48744 150.785 9.60255 151.082 9.83276C151.383 10.063 151.579 10.3795 151.672 10.7824H151.749C151.985 10.3859 152.316 10.071 152.742 9.83756C153.167 9.60415 153.645 9.48744 154.176 9.48744C154.837 9.48744 155.346 9.69847 155.701 10.1205C156.059 10.5394 156.168 11.1693 156.027 12.0102L155.202 16.9502H153.763L154.569 12.1445C154.649 11.6425 154.572 11.2812 154.339 11.0606C154.105 10.8367 153.8 10.7248 153.423 10.7248C152.956 10.7248 152.569 10.8687 152.262 11.1565C151.955 11.4411 151.766 11.8072 151.696 12.2548L150.905 16.9502H149.48L150.3 12.0534C150.364 11.6505 150.291 11.3291 150.08 11.0893C149.872 10.8463 149.568 10.7248 149.168 10.7248C148.897 10.7248 148.633 10.7968 148.377 10.9407C148.124 11.0845 147.909 11.2828 147.73 11.5354C147.551 11.788 147.434 12.0789 147.38 12.4083L146.622 16.9502H145.188ZM160.275 17.0989C159.552 17.0989 158.955 16.9438 158.481 16.6337C158.011 16.3203 157.682 15.8807 157.493 15.3147C157.305 14.7456 157.274 14.0789 157.402 13.3147C157.527 12.5602 157.778 11.8951 158.155 11.3196C158.532 10.744 159.002 10.2948 159.565 9.97185C160.131 9.64891 160.756 9.48744 161.441 9.48744C161.856 9.48744 162.248 9.55618 162.616 9.69367C162.986 9.83116 163.301 10.047 163.56 10.3411C163.819 10.6353 163.998 11.0174 164.098 11.4874C164.2 11.9542 164.197 12.5218 164.088 13.19L164.006 13.6984H158.146L158.313 12.6241H162.764C162.831 12.2468 162.814 11.9127 162.711 11.6217C162.609 11.3275 162.433 11.0957 162.184 10.9263C161.938 10.7568 161.628 10.6721 161.253 10.6721C160.87 10.6721 160.512 10.7728 160.179 10.9742C159.847 11.1757 159.568 11.4331 159.345 11.7464C159.124 12.0566 158.985 12.3763 158.927 12.7056L158.759 13.6888C158.676 14.226 158.691 14.6577 158.803 14.9838C158.918 15.3099 159.119 15.5465 159.407 15.6936C159.695 15.8407 160.054 15.9142 160.486 15.9142C160.764 15.9142 161.022 15.8759 161.258 15.7991C161.498 15.7192 161.711 15.6025 161.896 15.449C162.082 15.2923 162.237 15.0973 162.361 14.8639L163.676 15.1085C163.5 15.5082 163.247 15.8583 162.918 16.1588C162.588 16.4562 162.2 16.688 161.752 16.8543C161.308 17.0173 160.815 17.0989 160.275 17.0989ZM165.077 16.9502L166.305 9.58336H167.681L167.48 10.7824H167.571C167.795 10.3763 168.099 10.0598 168.482 9.83276C168.869 9.60255 169.307 9.48744 169.797 9.48744C170.283 9.48744 170.674 9.60255 170.972 9.83276C171.272 10.063 171.469 10.3795 171.562 10.7824H171.638C171.875 10.3859 172.206 10.071 172.631 9.83756C173.056 9.60415 173.534 9.48744 174.065 9.48744C174.727 9.48744 175.235 9.69847 175.59 10.1205C175.948 10.5394 176.057 11.1693 175.916 12.0102L175.091 16.9502H173.653L174.458 12.1445C174.538 11.6425 174.462 11.2812 174.228 11.0606C173.995 10.8367 173.689 10.7248 173.312 10.7248C172.845 10.7248 172.458 10.8687 172.151 11.1565C171.844 11.4411 171.656 11.8072 171.585 12.2548L170.794 16.9502H169.37L170.19 12.0534C170.254 11.6505 170.18 11.3291 169.969 11.0893C169.761 10.8463 169.458 10.7248 169.058 10.7248C168.786 10.7248 168.522 10.7968 168.267 10.9407C168.014 11.0845 167.798 11.2828 167.619 11.5354C167.44 11.788 167.323 12.0789 167.269 12.4083L166.511 16.9502H165.077ZM177.124 16.9502L178.754 7.12775H180.189L179.589 10.7776H179.675C179.784 10.6241 179.933 10.4467 180.121 10.2452C180.313 10.0438 180.561 9.86793 180.865 9.71765C181.169 9.56418 181.549 9.48744 182.006 9.48744C182.601 9.48744 183.106 9.63772 183.522 9.93828C183.937 10.2388 184.232 10.6721 184.404 11.238C184.577 11.804 184.598 12.485 184.467 13.2812C184.336 14.0773 184.089 14.76 183.728 15.3291C183.37 15.8951 182.934 16.3315 182.419 16.6384C181.904 16.9422 181.349 17.0941 180.754 17.0941C180.307 17.0941 179.954 17.0189 179.695 16.8687C179.439 16.7184 179.247 16.5425 179.119 16.3411C178.994 16.1397 178.9 15.9606 178.836 15.8039H178.716L178.524 16.9502H177.124ZM179.143 13.2668C179.06 13.7848 179.06 14.2388 179.143 14.6289C179.229 15.019 179.397 15.3243 179.647 15.5449C179.899 15.7624 180.23 15.8711 180.639 15.8711C181.068 15.8711 181.445 15.7576 181.771 15.5305C182.097 15.3003 182.366 14.9886 182.577 14.5953C182.788 14.202 182.935 13.7592 183.018 13.2668C183.095 12.7808 183.093 12.3443 183.013 11.9574C182.934 11.5706 182.767 11.2652 182.515 11.0414C182.265 10.8176 181.925 10.7057 181.493 10.7057C181.077 10.7057 180.708 10.8128 180.385 11.027C180.062 11.2412 179.795 11.5402 179.584 11.9239C179.373 12.3076 179.226 12.7552 179.143 13.2668ZM188.619 17.0989C187.896 17.0989 187.298 16.9438 186.825 16.6337C186.355 16.3203 186.026 15.8807 185.837 15.3147C185.649 14.7456 185.618 14.0789 185.746 13.3147C185.871 12.5602 186.122 11.8951 186.499 11.3196C186.876 10.744 187.346 10.2948 187.909 9.97185C188.475 9.64891 189.1 9.48744 189.784 9.48744C190.2 9.48744 190.592 9.55618 190.959 9.69367C191.33 9.83116 191.645 10.047 191.904 10.3411C192.163 10.6353 192.342 11.0174 192.441 11.4874C192.544 11.9542 192.541 12.5218 192.432 13.19L192.35 13.6984H186.489L186.657 12.6241H191.108C191.175 12.2468 191.158 11.9127 191.055 11.6217C190.953 11.3275 190.777 11.0957 190.528 10.9263C190.282 10.7568 189.971 10.6721 189.597 10.6721C189.214 10.6721 188.856 10.7728 188.523 10.9742C188.19 11.1757 187.912 11.4331 187.688 11.7464C187.468 12.0566 187.329 12.3763 187.271 12.7056L187.103 13.6888C187.02 14.226 187.035 14.6577 187.146 14.9838C187.262 15.3099 187.463 15.5465 187.751 15.6936C188.039 15.8407 188.398 15.9142 188.83 15.9142C189.108 15.9142 189.366 15.8759 189.602 15.7991C189.842 15.7192 190.055 15.6025 190.24 15.449C190.425 15.2923 190.581 15.0973 190.705 14.8639L192.019 15.1085C191.843 15.5082 191.591 15.8583 191.262 16.1588C190.932 16.4562 190.544 16.688 190.096 16.8543C189.652 17.0173 189.159 17.0989 188.619 17.0989ZM193.416 16.9502L194.644 9.58336H196.03L195.833 10.7536H195.91C196.108 10.3571 196.398 10.0454 196.778 9.81837C197.159 9.58816 197.565 9.47305 197.997 9.47305C198.089 9.47305 198.195 9.47625 198.313 9.48264C198.431 9.48584 198.527 9.49384 198.601 9.50662L198.371 10.8783C198.316 10.8623 198.217 10.8447 198.073 10.8256C197.929 10.8032 197.781 10.792 197.627 10.792C197.291 10.792 196.98 10.8639 196.692 11.0078C196.404 11.1485 196.163 11.3451 195.968 11.5977C195.773 11.8471 195.646 12.1317 195.589 12.4514L194.85 16.9502H193.416ZM205.077 11.3819L203.739 11.6121C203.71 11.4427 203.651 11.2828 203.561 11.1325C203.475 10.9822 203.342 10.8607 203.163 10.768C202.984 10.6721 202.746 10.6241 202.448 10.6241C202.036 10.6241 201.675 10.7184 201.365 10.9071C201.058 11.0957 200.882 11.3355 200.837 11.6265C200.795 11.8631 200.851 12.055 201.005 12.202C201.158 12.3459 201.429 12.4658 201.815 12.5617L202.947 12.8303C203.6 12.987 204.066 13.2316 204.348 13.5641C204.632 13.8935 204.731 14.3219 204.645 14.8495C204.572 15.2875 204.38 15.676 204.07 16.015C203.763 16.3539 203.369 16.6193 202.89 16.8111C202.41 17.003 201.876 17.0989 201.288 17.0989C200.45 17.0989 199.798 16.9214 199.331 16.5665C198.864 16.2116 198.624 15.7096 198.612 15.0605L200.031 14.8495C200.057 15.2108 200.186 15.4842 200.42 15.6696C200.656 15.8519 200.984 15.943 201.403 15.943C201.883 15.9462 202.284 15.8455 202.607 15.6409C202.93 15.4362 203.114 15.1884 203.158 14.8975C203.197 14.6704 203.146 14.4818 203.005 14.3315C202.867 14.1812 202.624 14.0661 202.276 13.9862L201.086 13.7128C200.421 13.5561 199.951 13.3035 199.676 12.955C199.401 12.6065 199.309 12.1685 199.398 11.6409C199.469 11.2092 199.651 10.8336 199.945 10.5138C200.242 10.1909 200.618 9.93987 201.072 9.76082C201.526 9.57857 202.028 9.48744 202.578 9.48744C203.381 9.48744 203.983 9.6601 204.386 10.0054C204.789 10.3475 205.019 10.8064 205.077 11.3819Z" fill="url(#paint1_linear_5213_2349)"/>
<defs>
<linearGradient id="paint0_linear_5213_2349" x1="0.449219" y1="11.9502" x2="217.449" y2="11.9502" gradientUnits="userSpaceOnUse">
<stop stop-color="#FF025B"/>
<stop offset="1" stop-color="#3C73FF"/>
</linearGradient>
<linearGradient id="paint1_linear_5213_2349" x1="11.4492" y1="11.9502" x2="206.449" y2="11.9502" gradientUnits="userSpaceOnUse">
<stop stop-color="#FF025B"/>
<stop offset="1" stop-color="#3C73FF"/>
</linearGradient>
</defs>
</svg>
