<svg width="17" height="16" viewBox="0 0 17 16" fill="none" xmlns="http://www.w3.org/2000/svg">
<g clip-path="url(#clip0_3789_1829)">
<path d="M14.2811 13.4809H11.9135V9.80958C11.9135 8.93413 11.8977 7.80715 10.6821 7.80715C9.44894 7.80715 9.26026 8.76099 9.26026 9.74584V13.4806H6.89262V5.93096H9.16555V6.96271H9.19737C9.42484 6.57761 9.75353 6.26082 10.1485 6.04606C10.5434 5.83131 10.9897 5.72663 11.44 5.74318C13.8397 5.74318 14.2821 7.30605 14.2821 9.33925L14.2811 13.4809ZM4.22116 4.89898C3.94941 4.89903 3.68375 4.81929 3.45777 4.66984C3.2318 4.5204 3.05567 4.30795 2.95163 4.05939C2.84759 3.81082 2.82033 3.53729 2.8733 3.27338C2.92626 3.00947 3.05708 2.76704 3.2492 2.57675C3.44132 2.38645 3.68611 2.25684 3.95263 2.2043C4.21914 2.15176 4.4954 2.17865 4.74647 2.28158C4.99755 2.3845 5.21217 2.55883 5.36318 2.78253C5.51419 3.00622 5.59483 3.26923 5.59488 3.5383C5.59491 3.71696 5.5594 3.89387 5.49038 4.05894C5.42136 4.224 5.32019 4.37399 5.19263 4.50034C5.06507 4.6267 4.91361 4.72693 4.74693 4.79533C4.58024 4.86373 4.40159 4.89895 4.22116 4.89898ZM5.40497 13.4809H3.03487V5.93096H5.40497V13.4809ZM15.4615 0.00107794H1.84515C1.53609 -0.00237537 1.23829 0.115801 1.01719 0.32964C0.796088 0.543478 0.669787 0.835482 0.666016 1.14149V14.6796C0.669658 14.9858 0.795885 15.278 1.01698 15.4921C1.23807 15.7061 1.53594 15.8245 1.84515 15.8213H15.4615C15.7713 15.8251 16.07 15.7071 16.292 15.493C16.5139 15.2789 16.641 14.9864 16.6453 14.6796V1.14051C16.6409 0.833899 16.5137 0.541562 16.2917 0.327729C16.0698 0.113896 15.7711 -0.0039431 15.4615 0.000100744" fill="#696969"/>
</g>
<defs>
<clipPath id="clip0_3789_1829">
<rect width="16" height="16" fill="white" transform="translate(0.666016)"/>
</clipPath>
</defs>
</svg>
