<svg width="17" height="18" viewBox="0 0 17 18" fill="none" xmlns="http://www.w3.org/2000/svg">
<path d="M5.36117 12.9263L8.36117 9.92627L11.3612 12.9263L12.5278 11.7596L9.52783 8.7596L12.5278 5.7596L11.3612 4.59294L8.36117 7.59294L5.36117 4.59294L4.1945 5.7596L7.1945 8.7596L4.1945 11.7596L5.36117 12.9263ZM8.36117 17.0929C7.20839 17.0929 6.12505 16.8742 5.11117 16.4367C4.09728 15.9992 3.21533 15.4054 2.46533 14.6554C1.71533 13.9054 1.12158 13.0235 0.684082 12.0096C0.246582 10.9957 0.027832 9.91238 0.027832 8.7596C0.027832 7.60682 0.246582 6.52349 0.684082 5.5096C1.12158 4.49571 1.71533 3.61377 2.46533 2.86377C3.21533 2.11377 4.09728 1.52002 5.11117 1.08252C6.12505 0.64502 7.20839 0.42627 8.36117 0.42627C9.51394 0.42627 10.5973 0.64502 11.6112 1.08252C12.6251 1.52002 13.507 2.11377 14.257 2.86377C15.007 3.61377 15.6007 4.49571 16.0382 5.5096C16.4757 6.52349 16.6945 7.60682 16.6945 8.7596C16.6945 9.91238 16.4757 10.9957 16.0382 12.0096C15.6007 13.0235 15.007 13.9054 14.257 14.6554C13.507 15.4054 12.6251 15.9992 11.6112 16.4367C10.5973 16.8742 9.51394 17.0929 8.36117 17.0929Z" fill="#EB0808"/>
</svg>
