<svg width="40" height="40" viewBox="0 0 40 40" fill="none" xmlns="http://www.w3.org/2000/svg">
<circle cx="20" cy="20" r="20" fill="#F5F5F5"/>
<mask id="mask0_2842_1722" style="mask-type:alpha" maskUnits="userSpaceOnUse" x="0" y="0" width="40" height="40">
<rect width="40" height="40" fill="#D9D9D9"/>
</mask>
<g mask="url(#mask0_2842_1722)">
<mask id="mask1_2842_1722" style="mask-type:alpha" maskUnits="userSpaceOnUse" x="9" y="9" width="24" height="24">
<rect x="9" y="9" width="24" height="24" fill="#D9D9D9"/>
</mask>
<g mask="url(#mask1_2842_1722)">
<path d="M26.95 25.175L24.1 22.35L25.525 20.95L26.95 22.35L30.475 18.825L31.9 20.225L26.95 25.175ZM20 30L16.825 27.15C15.625 26.0667 14.5958 25.1 13.7375 24.25C12.8792 23.4 12.1708 22.6 11.6125 21.85C11.0542 21.1 10.6458 20.375 10.3875 19.675C10.1292 18.975 10 18.2417 10 17.475C10 15.9083 10.525 14.6042 11.575 13.5625C12.625 12.5208 13.9333 12 15.5 12C16.3667 12 17.1917 12.1833 17.975 12.55C18.7583 12.9167 19.4333 13.4333 20 14.1C20.5667 13.4333 21.2417 12.9167 22.025 12.55C22.8083 12.1833 23.6333 12 24.5 12C25.85 12 26.9833 12.3792 27.9 13.1375C28.8167 13.8958 29.4417 14.85 29.775 16H27.65C27.35 15.3333 26.9083 14.8333 26.325 14.5C25.7417 14.1667 25.1333 14 24.5 14C23.65 14 22.9167 14.2292 22.3 14.6875C21.6833 15.1458 21.1083 15.75 20.575 16.5H19.425C18.9083 15.75 18.3208 15.1458 17.6625 14.6875C17.0042 14.2292 16.2833 14 15.5 14C14.55 14 13.7292 14.3292 13.0375 14.9875C12.3458 15.6458 12 16.475 12 17.475C12 18.025 12.1167 18.5833 12.35 19.15C12.5833 19.7167 13 20.3708 13.6 21.1125C14.2 21.8542 15.0167 22.7208 16.05 23.7125C17.0833 24.7042 18.4 25.9 20 27.3C20.4333 26.9167 20.9417 26.475 21.525 25.975C22.1083 25.475 22.575 25.0583 22.925 24.725L24.35 26.15C23.9833 26.4833 23.5167 26.8958 22.95 27.3875C22.3833 27.8792 21.8833 28.3167 21.45 28.7L20 30Z" fill="#EB0808"/>
</g>
</g>
</svg>
