<svg width="100" height="32" viewBox="0 0 100 32" fill="none" xmlns="http://www.w3.org/2000/svg">
<rect width="100" height="32" rx="16" fill="url(#paint0_linear_1038_1490)"/>
<path d="M15.7784 22V10.3636H22.9943V11.875H17.5341V15.4205H22.4773V16.9261H17.5341V22H15.7784ZM24.9077 22V13.2727H26.5497V14.6591H26.6406C26.7997 14.1894 27.08 13.8201 27.4815 13.5511C27.8868 13.2784 28.3452 13.142 28.8565 13.142C28.9626 13.142 29.0876 13.1458 29.2315 13.1534C29.3793 13.161 29.4948 13.1705 29.5781 13.1818V14.8068C29.5099 14.7879 29.3887 14.767 29.2145 14.7443C29.0402 14.7178 28.866 14.7045 28.6918 14.7045C28.2902 14.7045 27.9323 14.7898 27.6179 14.9602C27.3073 15.1269 27.0611 15.3598 26.8793 15.6591C26.6974 15.9545 26.6065 16.2917 26.6065 16.6705V22H24.9077ZM34.4972 22.1761C33.6373 22.1761 32.8968 21.9924 32.2756 21.625C31.6581 21.2538 31.1809 20.733 30.8438 20.0625C30.5104 19.3883 30.3438 18.5985 30.3438 17.6932C30.3438 16.7992 30.5104 16.0114 30.8438 15.3295C31.1809 14.6477 31.6506 14.1155 32.2528 13.733C32.8589 13.3504 33.5672 13.1591 34.3778 13.1591C34.8703 13.1591 35.3475 13.2405 35.8097 13.4034C36.2718 13.5663 36.6866 13.822 37.054 14.1705C37.4214 14.5189 37.7112 14.9716 37.9233 15.5284C38.1354 16.0814 38.2415 16.7538 38.2415 17.5455V18.1477H31.304V16.875H36.5767C36.5767 16.428 36.4858 16.0322 36.304 15.6875C36.1222 15.339 35.8665 15.0644 35.5369 14.8636C35.2112 14.6629 34.8286 14.5625 34.3892 14.5625C33.9119 14.5625 33.4953 14.6799 33.1392 14.9148C32.7869 15.1458 32.5142 15.4489 32.321 15.8239C32.1316 16.1951 32.0369 16.5985 32.0369 17.0341V18.0284C32.0369 18.6117 32.1392 19.108 32.3438 19.517C32.5521 19.9261 32.8419 20.2386 33.2131 20.4545C33.5843 20.6667 34.018 20.7727 34.5142 20.7727C34.8362 20.7727 35.1297 20.7273 35.3949 20.6364C35.66 20.5417 35.8892 20.4015 36.0824 20.2159C36.2756 20.0303 36.4233 19.8011 36.5256 19.5284L38.1335 19.8182C38.0047 20.2917 37.7737 20.7064 37.4403 21.0625C37.1108 21.4148 36.696 21.6894 36.196 21.8864C35.6998 22.0795 35.1335 22.1761 34.4972 22.1761ZM43.8878 22.1761C43.0279 22.1761 42.2874 21.9924 41.6662 21.625C41.0488 21.2538 40.5715 20.733 40.2344 20.0625C39.901 19.3883 39.7344 18.5985 39.7344 17.6932C39.7344 16.7992 39.901 16.0114 40.2344 15.3295C40.5715 14.6477 41.0412 14.1155 41.6435 13.733C42.2495 13.3504 42.9579 13.1591 43.7685 13.1591C44.2609 13.1591 44.7382 13.2405 45.2003 13.4034C45.6624 13.5663 46.0772 13.822 46.4446 14.1705C46.812 14.5189 47.1018 14.9716 47.3139 15.5284C47.526 16.0814 47.6321 16.7538 47.6321 17.5455V18.1477H40.6946V16.875H45.9673C45.9673 16.428 45.8764 16.0322 45.6946 15.6875C45.5128 15.339 45.2571 15.0644 44.9276 14.8636C44.6018 14.6629 44.2192 14.5625 43.7798 14.5625C43.3026 14.5625 42.8859 14.6799 42.5298 14.9148C42.1776 15.1458 41.9048 15.4489 41.7116 15.8239C41.5223 16.1951 41.4276 16.5985 41.4276 17.0341V18.0284C41.4276 18.6117 41.5298 19.108 41.7344 19.517C41.9427 19.9261 42.2325 20.2386 42.6037 20.4545C42.9749 20.6667 43.4086 20.7727 43.9048 20.7727C44.2268 20.7727 44.5204 20.7273 44.7855 20.6364C45.0507 20.5417 45.2798 20.4015 45.473 20.2159C45.6662 20.0303 45.8139 19.8011 45.9162 19.5284L47.5241 19.8182C47.3954 20.2917 47.1643 20.7064 46.831 21.0625C46.5014 21.4148 46.0866 21.6894 45.5866 21.8864C45.0904 22.0795 44.5241 22.1761 43.8878 22.1761ZM53.8878 22V10.3636H58.0355C58.9408 10.3636 59.6908 10.5284 60.2855 10.858C60.8802 11.1875 61.3253 11.6383 61.6207 12.2102C61.9162 12.7784 62.0639 13.4186 62.0639 14.1307C62.0639 14.8466 61.9143 15.4905 61.6151 16.0625C61.3196 16.6307 60.8726 17.0814 60.2741 17.4148C59.6795 17.7443 58.9313 17.9091 58.0298 17.9091H55.1776V16.4205H57.8707C58.4427 16.4205 58.9067 16.322 59.2628 16.125C59.6188 15.9242 59.8802 15.6515 60.0469 15.3068C60.2135 14.9621 60.2969 14.5701 60.2969 14.1307C60.2969 13.6913 60.2135 13.3011 60.0469 12.9602C59.8802 12.6193 59.617 12.3523 59.2571 12.1591C58.901 11.9659 58.4313 11.8693 57.848 11.8693H55.6435V22H53.8878ZM65.6847 10.3636V22H63.9858V10.3636H65.6847ZM70.5099 22.1932C69.9569 22.1932 69.4569 22.0909 69.0099 21.8864C68.563 21.678 68.2088 21.3769 67.9474 20.983C67.6899 20.589 67.5611 20.1061 67.5611 19.5341C67.5611 19.0417 67.6558 18.6364 67.8452 18.3182C68.0346 18 68.2902 17.7481 68.6122 17.5625C68.9342 17.3769 69.294 17.2367 69.6918 17.142C70.0895 17.0473 70.4948 16.9754 70.9077 16.9261C71.4304 16.8655 71.8546 16.8163 72.1804 16.7784C72.5062 16.7367 72.7429 16.6705 72.8906 16.5795C73.0384 16.4886 73.1122 16.3409 73.1122 16.1364V16.0966C73.1122 15.6004 72.9721 15.2159 72.6918 14.9432C72.4152 14.6705 72.0024 14.5341 71.4531 14.5341C70.8812 14.5341 70.4304 14.661 70.1009 14.9148C69.7751 15.1648 69.5497 15.4432 69.4247 15.75L67.8281 15.3864C68.0175 14.8561 68.294 14.428 68.6577 14.1023C69.0251 13.7727 69.4474 13.5341 69.9247 13.3864C70.402 13.2348 70.9039 13.1591 71.4304 13.1591C71.7789 13.1591 72.1482 13.2008 72.5384 13.2841C72.9323 13.3636 73.2997 13.5114 73.6406 13.7273C73.9853 13.9432 74.2675 14.2519 74.4872 14.6534C74.7069 15.0511 74.8168 15.5682 74.8168 16.2045V22H73.1577V20.8068H73.0895C72.9796 21.0265 72.8149 21.2424 72.5952 21.4545C72.3755 21.6667 72.0933 21.8428 71.7486 21.983C71.4039 22.1231 70.991 22.1932 70.5099 22.1932ZM70.8793 20.8295C71.349 20.8295 71.7505 20.7367 72.0838 20.5511C72.4209 20.3655 72.6766 20.1231 72.8509 19.8239C73.0289 19.5208 73.1179 19.197 73.1179 18.8523V17.7273C73.0573 17.7879 72.9399 17.8447 72.7656 17.8977C72.5952 17.947 72.4001 17.9905 72.1804 18.0284C71.9607 18.0625 71.7467 18.0947 71.5384 18.125C71.33 18.1515 71.1558 18.1742 71.0156 18.1932C70.6861 18.2348 70.3849 18.3049 70.1122 18.4034C69.8433 18.5019 69.6274 18.6439 69.4645 18.8295C69.3054 19.0114 69.2259 19.2538 69.2259 19.5568C69.2259 19.9773 69.3812 20.2955 69.6918 20.5114C70.0024 20.7235 70.3982 20.8295 70.8793 20.8295ZM78.7784 16.8182V22H77.0795V13.2727H78.7102V14.6932H78.8182C79.0189 14.2311 79.3333 13.8598 79.7614 13.5795C80.1932 13.2992 80.7367 13.1591 81.392 13.1591C81.9867 13.1591 82.5076 13.2841 82.9545 13.5341C83.4015 13.7803 83.7481 14.1477 83.9943 14.6364C84.2405 15.125 84.3636 15.7292 84.3636 16.4489V22H82.6648V16.6534C82.6648 16.0208 82.5 15.5265 82.1705 15.1705C81.8409 14.8106 81.3883 14.6307 80.8125 14.6307C80.4186 14.6307 80.0682 14.7159 79.7614 14.8864C79.4583 15.0568 79.2178 15.3068 79.0398 15.6364C78.8655 15.9621 78.7784 16.3561 78.7784 16.8182Z" fill="white"/>
<defs>
<linearGradient id="paint0_linear_1038_1490" x1="0" y1="16" x2="100" y2="16" gradientUnits="userSpaceOnUse">
<stop stop-color="#0270FF"/>
<stop offset="1" stop-color="#014399"/>
</linearGradient>
</defs>
</svg>
