<svg width="24" height="24" viewBox="0 0 24 24" fill="none" xmlns="http://www.w3.org/2000/svg">
<path d="M22.5011 12.2331C22.5011 11.3698 22.4296 10.7398 22.2749 10.0864H12.2153V13.9831H18.1201C18.0011 14.9515 17.3582 16.4098 15.9296 17.3897L15.9095 17.5202L19.0902 19.9349L19.3106 19.9564C21.3344 18.1248 22.5011 15.4297 22.5011 12.2331Z" fill="#4285F4"/>
<path d="M12.2147 22.5001C15.1076 22.5001 17.5361 21.5667 19.31 19.9567L15.929 17.3899C15.0242 18.0083 13.8099 18.4399 12.2147 18.4399C9.38145 18.4399 6.97669 16.6084 6.11947 14.0767L5.99382 14.0871L2.68656 16.5955L2.64331 16.7133C4.4052 20.1433 8.02425 22.5001 12.2147 22.5001Z" fill="#34A853"/>
<path d="M6.1201 14.0767C5.89392 13.4234 5.76301 12.7234 5.76301 12.0001C5.76301 11.2767 5.89392 10.5767 6.1082 9.92339L6.10221 9.78419L2.75349 7.2356L2.64393 7.28667C1.91778 8.71004 1.5011 10.3084 1.5011 12.0001C1.5011 13.6917 1.91778 15.29 2.64393 16.7134L6.1201 14.0767Z" fill="#FBBC05"/>
<path d="M12.2148 5.55997C14.2267 5.55997 15.5838 6.41164 16.3577 7.12335L19.3814 4.23C17.5244 2.53834 15.1076 1.5 12.2148 1.5C8.02425 1.5 4.4052 3.85665 2.64331 7.28662L6.10759 9.92332C6.97672 7.39166 9.38145 5.55997 12.2148 5.55997Z" fill="#EB4335"/>
</svg>
