<svg width="20" height="20" viewBox="0 0 20 20" fill="none" xmlns="http://www.w3.org/2000/svg">
<mask id="mask0_3020_1634" style="mask-type:alpha" maskUnits="userSpaceOnUse" x="0" y="0" width="20" height="20">
<rect width="20" height="20" fill="#D9D9D9"/>
</mask>
<g mask="url(#mask0_3020_1634)">
<path d="M8.83317 13.8334L14.7082 7.95841L13.5415 6.79175L8.83317 11.5001L6.45817 9.12508L5.2915 10.2917L8.83317 13.8334ZM9.99984 18.3334C8.84706 18.3334 7.76373 18.1147 6.74984 17.6772C5.73595 17.2397 4.854 16.6459 4.104 15.8959C3.354 15.1459 2.76025 14.264 2.32275 13.2501C1.88525 12.2362 1.6665 11.1529 1.6665 10.0001C1.6665 8.8473 1.88525 7.76397 2.32275 6.75008C2.76025 5.73619 3.354 4.85425 4.104 4.10425C4.854 3.35425 5.73595 2.7605 6.74984 2.323C7.76373 1.8855 8.84706 1.66675 9.99984 1.66675C11.1526 1.66675 12.2359 1.8855 13.2498 2.323C14.2637 2.7605 15.1457 3.35425 15.8957 4.10425C16.6457 4.85425 17.2394 5.73619 17.6769 6.75008C18.1144 7.76397 18.3332 8.8473 18.3332 10.0001C18.3332 11.1529 18.1144 12.2362 17.6769 13.2501C17.2394 14.264 16.6457 15.1459 15.8957 15.8959C15.1457 16.6459 14.2637 17.2397 13.2498 17.6772C12.2359 18.1147 11.1526 18.3334 9.99984 18.3334Z" fill="#15B700"/>
</g>
</svg>
