<svg width="25" height="24" viewBox="0 0 25 24" fill="none" xmlns="http://www.w3.org/2000/svg">
<mask id="mask0_457_1663" style="mask-type:alpha" maskUnits="userSpaceOnUse" x="0" y="0" width="25" height="24">
<rect x="0.5" width="24" height="24" fill="#D9D9D9"/>
</mask>
<g mask="url(#mask0_457_1663)">
<path d="M1.5 20V17.2C1.5 16.6333 1.64583 16.1125 1.9375 15.6375C2.22917 15.1625 2.61667 14.8 3.1 14.55C4.13333 14.0333 5.18333 13.6458 6.25 13.3875C7.31667 13.1292 8.4 13 9.5 13C10.0333 13 10.5708 13.0292 11.1125 13.0875C11.6542 13.1458 12.1917 13.2417 12.725 13.375C12.5083 13.6583 12.3208 13.9542 12.1625 14.2625C12.0042 14.5708 11.875 14.8917 11.775 15.225C11.3917 15.1417 11.0125 15.0833 10.6375 15.05C10.2625 15.0167 9.88333 15 9.5 15C8.56667 15 7.64167 15.1125 6.725 15.3375C5.80833 15.5625 4.9 15.9 4 16.35C3.85 16.4333 3.72917 16.55 3.6375 16.7C3.54583 16.85 3.5 17.0167 3.5 17.2V18H11.575C11.6417 18.3667 11.7333 18.7167 11.85 19.05C11.9667 19.3833 12.1167 19.7 12.3 20H1.5ZM9.5 12C8.4 12 7.45833 11.6083 6.675 10.825C5.89167 10.0417 5.5 9.1 5.5 8C5.5 6.9 5.89167 5.95833 6.675 5.175C7.45833 4.39167 8.4 4 9.5 4C10.6 4 11.5417 4.39167 12.325 5.175C13.1083 5.95833 13.5 6.9 13.5 8C13.5 9.1 13.1083 10.0417 12.325 10.825C11.5417 11.6083 10.6 12 9.5 12ZM19.5 8C19.5 9.1 19.1083 10.0417 18.325 10.825C17.5417 11.6083 16.6 12 15.5 12C15.3167 12 15.0833 11.9792 14.8 11.9375C14.5167 11.8958 14.2833 11.85 14.1 11.8C14.55 11.2667 14.8958 10.675 15.1375 10.025C15.3792 9.375 15.5 8.7 15.5 8C15.5 7.3 15.3792 6.625 15.1375 5.975C14.8958 5.325 14.55 4.73333 14.1 4.2C14.3333 4.11667 14.5667 4.0625 14.8 4.0375C15.0333 4.0125 15.2667 4 15.5 4C16.6 4 17.5417 4.39167 18.325 5.175C19.1083 5.95833 19.5 6.9 19.5 8ZM9.5 10C10.05 10 10.5208 9.80417 10.9125 9.4125C11.3042 9.02083 11.5 8.55 11.5 8C11.5 7.45 11.3042 6.97917 10.9125 6.5875C10.5208 6.19583 10.05 6 9.5 6C8.95 6 8.47917 6.19583 8.0875 6.5875C7.69583 6.97917 7.5 7.45 7.5 8C7.5 8.55 7.69583 9.02083 8.0875 9.4125C8.47917 9.80417 8.95 10 9.5 10ZM17.5 19C18.0667 19 18.5375 18.8333 18.9125 18.5C19.2875 18.1667 19.4833 17.6667 19.5 17C19.5167 16.4333 19.3292 15.9583 18.9375 15.575C18.5458 15.1917 18.0667 15 17.5 15C16.9333 15 16.4583 15.1917 16.075 15.575C15.6917 15.9583 15.5 16.4333 15.5 17C15.5 17.5667 15.6917 18.0417 16.075 18.425C16.4583 18.8083 16.9333 19 17.5 19ZM17.5 21C16.4 21 15.4583 20.6083 14.675 19.825C13.8917 19.0417 13.5 18.1 13.5 17C13.5 15.9 13.8917 14.9583 14.675 14.175C15.4583 13.3917 16.4 13 17.5 13C18.6 13 19.5417 13.3917 20.325 14.175C21.1083 14.9583 21.5 15.9 21.5 17C21.5 17.3833 21.4542 17.7458 21.3625 18.0875C21.2708 18.4292 21.1333 18.75 20.95 19.05L23.5 21.6L22.1 23L19.55 20.45C19.25 20.6333 18.9292 20.7708 18.5875 20.8625C18.2458 20.9542 17.8833 21 17.5 21Z" fill="#1C1B1F"/>
</g>
</svg>
