<svg width="28" height="28" viewBox="0 0 28 28" fill="none" xmlns="http://www.w3.org/2000/svg">
<mask id="mask0_80424_95" style="mask-type:alpha" maskUnits="userSpaceOnUse" x="0" y="0" width="28" height="28">
<rect width="28" height="28" fill="#D9D9D9"/>
</mask>
<g mask="url(#mask0_80424_95)">
<path d="M14 26L12.26 24.4414C10.24 22.6231 8.57 21.0545 7.25 19.7357C5.93 18.4169 4.88 17.233 4.1 16.1839C3.32 15.1349 2.775 14.1708 2.465 13.2916C2.155 12.4124 2 11.5132 2 10.594C2 8.71571 2.63 7.14714 3.89 5.88828C5.15 4.62943 6.72 4 8.6 4C9.64 4 10.63 4.2198 11.57 4.6594C12.51 5.099 13.32 5.71844 14 6.51771C14.68 5.71844 15.49 5.099 16.43 4.6594C17.37 4.2198 18.36 4 19.4 4C21.28 4 22.85 4.62943 24.11 5.88828C25.37 7.14714 26 8.71571 26 10.594C26 11.5132 25.845 12.4124 25.535 13.2916C25.225 14.1708 24.68 15.1349 23.9 16.1839C23.12 17.233 22.07 18.4169 20.75 19.7357C19.43 21.0545 17.76 22.6231 15.74 24.4414L14 26ZM14 22.7629C15.92 21.0445 17.5 19.5708 18.74 18.342C19.98 17.1131 20.96 16.0441 21.68 15.1349C22.4 14.2257 22.9 13.4164 23.18 12.7071C23.46 11.9977 23.6 11.2934 23.6 10.594C23.6 9.3951 23.2 8.396 22.4 7.59673C21.6 6.79746 20.6 6.39782 19.4 6.39782C18.46 6.39782 17.59 6.66258 16.79 7.1921C15.99 7.72162 15.44 8.396 15.14 9.21526H12.86C12.56 8.396 12.01 7.72162 11.21 7.1921C10.41 6.66258 9.54 6.39782 8.6 6.39782C7.4 6.39782 6.4 6.79746 5.6 7.59673C4.8 8.396 4.4 9.3951 4.4 10.594C4.4 11.2934 4.54 11.9977 4.82 12.7071C5.1 13.4164 5.6 14.2257 6.32 15.1349C7.04 16.0441 8.02 17.1131 9.26 18.342C10.5 19.5708 12.08 21.0445 14 22.7629Z" fill="#696969"/>
</g>
</svg>
