<svg width="24" height="24" viewBox="0 0 24 24" fill="none" xmlns="http://www.w3.org/2000/svg">
<mask id="mask0_207_1730" style="mask-type:alpha" maskUnits="userSpaceOnUse" x="0" y="0" width="24" height="24">
<rect width="24" height="24" fill="#D9D9D9"/>
</mask>
<g mask="url(#mask0_207_1730)">
<path d="M11 21L7.825 18.15C6.625 17.0667 5.59583 16.1 4.7375 15.25C3.87917 14.4 3.17083 13.6 2.6125 12.85C2.05417 12.1 1.64583 11.375 1.3875 10.675C1.12917 9.975 1 9.24167 1 8.475C1 6.90833 1.525 5.60417 2.575 4.5625C3.625 3.52083 4.93333 3 6.5 3C7.36667 3 8.19167 3.17917 8.975 3.5375C9.75833 3.89583 10.4333 4.40833 11 5.075C11.5667 4.40833 12.2417 3.89583 13.025 3.5375C13.8083 3.17917 14.6333 3 15.5 3C16.9167 3 18.1042 3.42917 19.0625 4.2875C20.0208 5.14583 20.6167 6.15 20.85 7.3C20.5167 7.16667 20.1667 7.08333 19.8 7.05C19.4333 7.01667 19.0583 7 18.675 7C17.2583 7 15.9583 7.57083 14.775 8.7125C13.5917 9.85417 13 11.2833 13 13C13 13.8 13.175 14.6125 13.525 15.4375C13.875 16.2625 14.3667 16.9333 15 17.45C14.6833 17.7333 14.2708 18.0958 13.7625 18.5375C13.2542 18.9792 12.8167 19.3667 12.45 19.7L11 21ZM17.95 16.175L15.1 13.35L16.525 11.95L17.95 13.35L21.475 9.825L22.9 11.225L17.95 16.175Z" fill="#EB0808"/>
</g>
</svg>
