<svg width="24" height="22" viewBox="0 0 24 22" fill="none" xmlns="http://www.w3.org/2000/svg">
<path d="M11.9999 21.5001L10.3083 19.9835C8.34436 18.214 6.72075 16.6876 5.43742 15.4043C4.15409 14.121 3.13325 12.9689 2.37492 11.948C1.61659 10.9272 1.08672 9.98902 0.785335 9.13346C0.483946 8.27791 0.333252 7.40291 0.333252 6.50846C0.333252 4.68069 0.945752 3.1543 2.17075 1.9293C3.39575 0.704297 4.92214 0.0917969 6.74992 0.0917969C7.76103 0.0917969 8.72353 0.305686 9.63742 0.733464C10.5513 1.16124 11.3388 1.76402 11.9999 2.5418C12.661 1.76402 13.4485 1.16124 14.3624 0.733464C15.2763 0.305686 16.2388 0.0917969 17.2499 0.0917969C19.0777 0.0917969 20.6041 0.704297 21.8291 1.9293C23.0541 3.1543 23.6666 4.68069 23.6666 6.50846C23.6666 7.40291 23.5159 8.27791 23.2145 9.13346C22.9131 9.98902 22.3833 10.9272 21.6249 11.948C20.8666 12.9689 19.8458 14.121 18.5624 15.4043C17.2791 16.6876 15.6555 18.214 13.6916 19.9835L11.9999 21.5001Z" fill="#FF025B"/>
</svg>
