<svg width="28" height="28" viewBox="0 0 28 28" fill="none" xmlns="http://www.w3.org/2000/svg">
<path d="M24.5 23.3331C24.5 23.6425 24.3771 23.9393 24.1583 24.1581C23.9395 24.3769 23.6428 24.4998 23.3333 24.4998H4.66667C4.35725 24.4998 4.0605 24.3769 3.84171 24.1581C3.62292 23.9393 3.5 23.6425 3.5 23.3331V11.0714C3.49988 10.8937 3.54039 10.7182 3.61844 10.5585C3.69648 10.3987 3.81001 10.2589 3.95033 10.1498L13.2837 2.88961C13.4885 2.73029 13.7405 2.6438 14 2.6438C14.2595 2.6438 14.5115 2.73029 14.7163 2.88961L24.0497 10.1498C24.19 10.2589 24.3035 10.3987 24.3816 10.5585C24.4596 10.7182 24.5001 10.8937 24.5 11.0714V23.3331ZM22.1667 22.1664V11.6408L14 5.28944L5.83333 11.6408V22.1664H22.1667Z" fill="#696969"/>
</svg>
