<svg width="40" height="40" viewBox="0 0 40 40" fill="none" xmlns="http://www.w3.org/2000/svg">
<mask id="mask0_4740_2010" style="mask-type:alpha" maskUnits="userSpaceOnUse" x="0" y="0" width="40" height="40">
<rect width="40" height="40" fill="#D9D9D9"/>
</mask>
<g mask="url(#mask0_4740_2010)">
<path d="M30 23.3332V18.3332H25V14.9998H30V9.99984H33.3333V14.9998H38.3333V18.3332H33.3333V23.3332H30ZM15 19.9998C13.1666 19.9998 11.5972 19.3471 10.2916 18.0415C8.98607 16.7359 8.33329 15.1665 8.33329 13.3332C8.33329 11.4998 8.98607 9.93039 10.2916 8.62484C11.5972 7.31928 13.1666 6.6665 15 6.6665C16.8333 6.6665 18.4027 7.31928 19.7083 8.62484C21.0138 9.93039 21.6666 11.4998 21.6666 13.3332C21.6666 15.1665 21.0138 16.7359 19.7083 18.0415C18.4027 19.3471 16.8333 19.9998 15 19.9998ZM1.66663 33.3332V28.6665C1.66663 27.7221 1.90968 26.854 2.39579 26.0623C2.8819 25.2707 3.52774 24.6665 4.33329 24.2498C6.05552 23.3887 7.80552 22.7429 9.58329 22.3123C11.3611 21.8818 13.1666 21.6665 15 21.6665C16.8333 21.6665 18.6388 21.8818 20.4166 22.3123C22.1944 22.7429 23.9444 23.3887 25.6666 24.2498C26.4722 24.6665 27.118 25.2707 27.6041 26.0623C28.0902 26.854 28.3333 27.7221 28.3333 28.6665V33.3332H1.66663ZM4.99996 29.9998H25V28.6665C25 28.3609 24.9236 28.0832 24.7708 27.8332C24.618 27.5832 24.4166 27.3887 24.1666 27.2498C22.6666 26.4998 21.1527 25.9373 19.625 25.5623C18.0972 25.1873 16.5555 24.9998 15 24.9998C13.4444 24.9998 11.9027 25.1873 10.375 25.5623C8.84718 25.9373 7.33329 26.4998 5.83329 27.2498C5.58329 27.3887 5.3819 27.5832 5.22913 27.8332C5.07635 28.0832 4.99996 28.3609 4.99996 28.6665V29.9998ZM15 16.6665C15.9166 16.6665 16.7013 16.3401 17.3541 15.6873C18.0069 15.0346 18.3333 14.2498 18.3333 13.3332C18.3333 12.4165 18.0069 11.6318 17.3541 10.979C16.7013 10.3262 15.9166 9.99984 15 9.99984C14.0833 9.99984 13.2986 10.3262 12.6458 10.979C11.993 11.6318 11.6666 12.4165 11.6666 13.3332C11.6666 14.2498 11.993 15.0346 12.6458 15.6873C13.2986 16.3401 14.0833 16.6665 15 16.6665Z" fill="#0270FF"/>
</g>
</svg>
