<svg width="729" height="603" viewBox="0 0 729 603" fill="none" xmlns="http://www.w3.org/2000/svg">
<path d="M11.0995 570V469.462H26.2686V517.473H27.4958L69.6649 469.462H88.7613L48.2122 514.724L88.9086 570H70.6467L38.1486 525.082L26.2686 538.729V570H11.0995ZM116.753 571.669C111.975 571.669 107.655 570.785 103.793 569.018C99.9311 567.218 96.8711 564.616 94.6129 561.213C92.3875 557.809 91.2747 553.636 91.2747 548.695C91.2747 544.44 92.0929 540.938 93.7293 538.189C95.3656 535.44 97.5747 533.264 100.357 531.66C103.138 530.056 106.247 528.845 109.684 528.027C113.12 527.209 116.622 526.587 120.189 526.162C124.706 525.638 128.371 525.213 131.186 524.885C134 524.525 136.046 523.953 137.322 523.167C138.598 522.382 139.237 521.105 139.237 519.338V518.995C139.237 514.707 138.026 511.385 135.604 509.029C133.215 506.673 129.647 505.495 124.902 505.495C119.96 505.495 116.066 506.591 113.218 508.784C110.404 510.944 108.457 513.349 107.377 516L93.582 512.858C95.2184 508.276 97.6075 504.578 100.749 501.764C103.924 498.916 107.573 496.855 111.697 495.578C115.82 494.269 120.157 493.615 124.706 493.615C127.717 493.615 130.907 493.975 134.278 494.695C137.682 495.382 140.857 496.658 143.802 498.524C146.78 500.389 149.218 503.056 151.117 506.525C153.015 509.962 153.964 514.429 153.964 519.927V570H139.629V559.691H139.04C138.091 561.589 136.667 563.455 134.769 565.287C132.871 567.12 130.433 568.642 127.455 569.853C124.477 571.064 120.909 571.669 116.753 571.669ZM119.944 559.887C124.002 559.887 127.471 559.085 130.351 557.482C133.264 555.878 135.473 553.784 136.978 551.198C138.517 548.58 139.286 545.782 139.286 542.804V533.084C138.762 533.607 137.747 534.098 136.242 534.556C134.769 534.982 133.084 535.358 131.186 535.685C129.287 535.98 127.438 536.258 125.638 536.52C123.838 536.749 122.333 536.945 121.122 537.109C118.275 537.469 115.673 538.075 113.317 538.925C110.993 539.776 109.127 541.004 107.72 542.607C106.346 544.178 105.658 546.273 105.658 548.891C105.658 552.524 107 555.273 109.684 557.138C112.367 558.971 115.787 559.887 119.944 559.887ZM181.28 469.462V570H166.602V469.462H181.28ZM203.393 598.276C201.201 598.276 199.204 598.096 197.404 597.736C195.604 597.409 194.263 597.049 193.379 596.656L196.913 584.629C199.597 585.349 201.986 585.66 204.081 585.562C206.175 585.464 208.024 584.678 209.628 583.205C211.264 581.733 212.704 579.327 213.948 575.989L215.764 570.982L188.175 494.596H203.884L222.981 553.113H223.766L242.863 494.596H258.621L227.546 580.064C226.106 583.991 224.273 587.313 222.048 590.029C219.823 592.778 217.172 594.84 214.095 596.215C211.019 597.589 207.452 598.276 203.393 598.276ZM285.287 571.669C280.509 571.669 276.189 570.785 272.327 569.018C268.465 567.218 265.405 564.616 263.147 561.213C260.921 557.809 259.809 553.636 259.809 548.695C259.809 544.44 260.627 540.938 262.263 538.189C263.9 535.44 266.109 533.264 268.891 531.66C271.672 530.056 274.781 528.845 278.218 528.027C281.654 527.209 285.156 526.587 288.723 526.162C293.24 525.638 296.905 525.213 299.72 524.885C302.534 524.525 304.58 523.953 305.856 523.167C307.132 522.382 307.771 521.105 307.771 519.338V518.995C307.771 514.707 306.56 511.385 304.138 509.029C301.749 506.673 298.181 505.495 293.436 505.495C288.494 505.495 284.6 506.591 281.752 508.784C278.938 510.944 276.991 513.349 275.911 516L262.116 512.858C263.752 508.276 266.141 504.578 269.283 501.764C272.458 498.916 276.107 496.855 280.231 495.578C284.354 494.269 288.691 493.615 293.24 493.615C296.251 493.615 299.441 493.975 302.812 494.695C306.216 495.382 309.391 496.658 312.336 498.524C315.314 500.389 317.752 503.056 319.651 506.525C321.549 509.962 322.498 514.429 322.498 519.927V570H308.163V559.691H307.574C306.625 561.589 305.201 563.455 303.303 565.287C301.405 567.12 298.967 568.642 295.989 569.853C293.011 571.064 289.443 571.669 285.287 571.669ZM288.478 559.887C292.536 559.887 296.005 559.085 298.885 557.482C301.798 555.878 304.007 553.784 305.512 551.198C307.051 548.58 307.82 545.782 307.82 542.804V533.084C307.296 533.607 306.281 534.098 304.776 534.556C303.303 534.982 301.618 535.358 299.72 535.685C297.821 535.98 295.972 536.258 294.172 536.52C292.372 536.749 290.867 536.945 289.656 537.109C286.809 537.469 284.207 538.075 281.851 538.925C279.527 539.776 277.661 541.004 276.254 542.607C274.88 544.178 274.192 546.273 274.192 548.891C274.192 552.524 275.534 555.273 278.218 557.138C280.901 558.971 284.321 559.887 288.478 559.887ZM349.814 525.229V570H335.136V494.596H349.225V506.869H350.158C351.893 502.876 354.609 499.669 358.307 497.247C362.038 494.825 366.734 493.615 372.396 493.615C377.534 493.615 382.034 494.695 385.896 496.855C389.758 498.982 392.753 502.156 394.88 506.378C397.007 510.6 398.071 515.82 398.071 522.038V570H383.393V523.805C383.393 518.34 381.969 514.069 379.122 510.993C376.274 507.884 372.364 506.329 367.389 506.329C363.985 506.329 360.958 507.065 358.307 508.538C355.689 510.011 353.611 512.171 352.073 515.018C350.567 517.833 349.814 521.236 349.814 525.229ZM432.788 571.669C428.01 571.669 423.69 570.785 419.828 569.018C415.966 567.218 412.906 564.616 410.648 561.213C408.422 557.809 407.31 553.636 407.31 548.695C407.31 544.44 408.128 540.938 409.764 538.189C411.401 535.44 413.61 533.264 416.392 531.66C419.173 530.056 422.282 528.845 425.719 528.027C429.155 527.209 432.657 526.587 436.224 526.162C440.741 525.638 444.406 525.213 447.221 524.885C450.035 524.525 452.081 523.953 453.357 523.167C454.633 522.382 455.272 521.105 455.272 519.338V518.995C455.272 514.707 454.061 511.385 451.639 509.029C449.25 506.673 445.682 505.495 440.937 505.495C435.995 505.495 432.101 506.591 429.253 508.784C426.439 510.944 424.492 513.349 423.412 516L409.617 512.858C411.253 508.276 413.642 504.578 416.784 501.764C419.959 498.916 423.608 496.855 427.732 495.578C431.855 494.269 436.192 493.615 440.741 493.615C443.752 493.615 446.942 493.975 450.313 494.695C453.717 495.382 456.892 496.658 459.837 498.524C462.815 500.389 465.253 503.056 467.152 506.525C469.05 509.962 469.999 514.429 469.999 519.927V570H455.664V559.691H455.075C454.126 561.589 452.702 563.455 450.804 565.287C448.906 567.12 446.468 568.642 443.49 569.853C440.512 571.064 436.944 571.669 432.788 571.669ZM435.979 559.887C440.037 559.887 443.506 559.085 446.386 557.482C449.299 555.878 451.508 553.784 453.013 551.198C454.552 548.58 455.321 545.782 455.321 542.804V533.084C454.797 533.607 453.782 534.098 452.277 534.556C450.804 534.982 449.119 535.358 447.221 535.685C445.322 535.98 443.473 536.258 441.673 536.52C439.873 536.749 438.368 536.945 437.157 537.109C434.31 537.469 431.708 538.075 429.352 538.925C427.028 539.776 425.162 541.004 423.755 542.607C422.381 544.178 421.693 546.273 421.693 548.891C421.693 552.524 423.035 555.273 425.719 557.138C428.402 558.971 431.822 559.887 435.979 559.887ZM571.148 519.731C571.148 530.465 569.185 539.695 565.257 547.418C561.33 555.109 555.946 561.033 549.106 565.189C542.299 569.313 534.559 571.375 525.886 571.375C517.181 571.375 509.408 569.313 502.568 565.189C495.761 561.033 490.394 555.093 486.466 547.369C482.539 539.645 480.575 530.433 480.575 519.731C480.575 508.996 482.539 499.784 486.466 492.093C490.394 484.369 495.761 478.445 502.568 474.322C509.408 470.165 517.181 468.087 525.886 468.087C534.559 468.087 542.299 470.165 549.106 474.322C555.946 478.445 561.33 484.369 565.257 492.093C569.185 499.784 571.148 508.996 571.148 519.731ZM556.126 519.731C556.126 511.549 554.801 504.66 552.15 499.064C549.532 493.435 545.932 489.18 541.35 486.3C536.801 483.387 531.646 481.931 525.886 481.931C520.094 481.931 514.923 483.387 510.374 486.3C505.825 489.18 502.225 493.435 499.574 499.064C496.955 504.66 495.646 511.549 495.646 519.731C495.646 527.913 496.955 534.818 499.574 540.447C502.225 546.044 505.825 550.298 510.374 553.211C514.923 556.091 520.094 557.531 525.886 557.531C531.646 557.531 536.801 556.091 541.35 553.211C545.932 550.298 549.532 546.044 552.15 540.447C554.801 534.818 556.126 527.913 556.126 519.731ZM596.648 525.229V570H581.97V494.596H596.059V506.869H596.992C598.727 502.876 601.443 499.669 605.141 497.247C608.872 494.825 613.568 493.615 619.23 493.615C624.368 493.615 628.868 494.695 632.73 496.855C636.592 498.982 639.587 502.156 641.714 506.378C643.841 510.6 644.905 515.82 644.905 522.038V570H630.227V523.805C630.227 518.34 628.803 514.069 625.956 510.993C623.108 507.884 619.198 506.329 614.223 506.329C610.819 506.329 607.792 507.065 605.141 508.538C602.523 510.011 600.445 512.171 598.907 515.018C597.401 517.833 596.648 521.236 596.648 525.229ZM690.176 571.522C682.747 571.522 676.349 569.935 670.982 566.76C665.647 563.553 661.524 559.053 658.611 553.26C655.731 547.435 654.291 540.611 654.291 532.789C654.291 525.065 655.731 518.258 658.611 512.367C661.524 506.476 665.582 501.878 670.786 498.573C676.022 495.267 682.142 493.615 689.146 493.615C693.4 493.615 697.524 494.318 701.516 495.725C705.509 497.133 709.093 499.342 712.267 502.353C715.442 505.364 717.946 509.275 719.778 514.085C721.611 518.864 722.527 524.673 722.527 531.513V536.716H662.587V525.72H708.144C708.144 521.858 707.358 518.438 705.787 515.46C704.216 512.449 702.007 510.076 699.16 508.342C696.346 506.607 693.04 505.74 689.244 505.74C685.12 505.74 681.52 506.755 678.444 508.784C675.4 510.78 673.044 513.398 671.375 516.638C669.738 519.845 668.92 523.331 668.92 527.095V535.685C668.92 540.725 669.804 545.013 671.571 548.547C673.371 552.082 675.875 554.782 679.082 556.647C682.289 558.48 686.036 559.396 690.324 559.396C693.106 559.396 695.642 559.004 697.933 558.218C700.224 557.4 702.204 556.189 703.873 554.585C705.542 552.982 706.818 551.002 707.702 548.645L721.595 551.149C720.482 555.24 718.486 558.824 715.606 561.9C712.758 564.944 709.175 567.316 704.855 569.018C700.567 570.687 695.675 571.522 690.176 571.522Z" fill="black"/>
<path d="M413.64 157.498C463.347 243.592 458.28 339.568 402.318 371.878C346.356 404.188 260.703 360.601 210.996 274.498C161.289 188.395 166.356 92.4281 222.318 60.1181C278.28 27.8081 363.942 71.4041 413.64 157.498Z" stroke="#FF025B" stroke-width="36" stroke-linecap="round" stroke-linejoin="round"/>
<path d="M312.317 157.498C262.61 243.592 267.677 339.568 323.639 371.878C379.601 404.188 465.263 360.592 514.97 274.498C564.677 188.404 559.61 92.4281 503.639 60.1181C447.695 27.8081 362.024 71.4041 312.317 157.498Z" stroke="#FF025B" stroke-width="36" stroke-linecap="round" stroke-linejoin="round"/>
<path d="M361.777 93.094C381.082 110.266 398.947 132.019 413.653 157.498C463.351 243.592 458.284 339.568 402.322 371.878C390.64 378.628 377.662 382.066 363.982 382.498" stroke="#FF025B" stroke-width="36" stroke-linecap="round" stroke-linejoin="round"/>
</svg>
