<svg width="40" height="40" viewBox="0 0 40 40" fill="none" xmlns="http://www.w3.org/2000/svg">
<mask id="mask0_1083_3324" style="mask-type:alpha" maskUnits="userSpaceOnUse" x="0" y="0" width="40" height="40">
<rect width="40" height="40" rx="1.66667" fill="#D9D9D9"/>
</mask>
<g mask="url(#mask0_1083_3324)">
<path d="M15.6757 36.9277C14.9074 37.2553 14.0152 36.9637 13.5888 36.2455L11.535 32.7864C11.3002 32.3909 10.9124 32.1101 10.4634 32.0103L6.60326 31.1525C5.78274 30.9702 5.22639 30.2054 5.30555 29.3686L5.68275 25.3811C5.72588 24.925 5.57942 24.4714 5.27778 24.1266L2.62731 21.0975C2.07748 20.4691 2.07748 19.5309 2.62731 18.9025L5.27778 15.8734C5.57942 15.5286 5.72588 15.075 5.68275 14.6189L5.30555 10.6314C5.22639 9.79463 5.78274 9.02983 6.60326 8.8475L10.4634 7.98968C10.9124 7.88991 11.3002 7.60906 11.535 7.2136L13.5888 3.75451C14.0152 3.03632 14.9074 2.74468 15.6757 3.07234L19.3465 4.63784C19.7642 4.81596 20.2365 4.81596 20.6541 4.63784L24.325 3.07234C25.0933 2.74468 25.9854 3.03632 26.4119 3.75451L28.4657 7.2136C28.7005 7.60906 29.0883 7.88991 29.5372 7.98968L33.3974 8.8475C34.2179 9.02983 34.7743 9.79463 34.6951 10.6314L34.3179 14.6189C34.2748 15.075 34.4212 15.5286 34.7229 15.8734L37.3733 18.9025C37.9232 19.5309 37.9232 20.4691 37.3733 21.0975L34.7229 24.1266C34.4212 24.4713 34.2748 24.925 34.3179 25.3811L34.6951 29.3686C34.7743 30.2054 34.2179 30.9702 33.3974 31.1525L29.5372 32.0103C29.0883 32.1101 28.7005 32.3909 28.4657 32.7864L26.4119 36.2455C25.9854 36.9637 25.0933 37.2553 24.325 36.9277L20.6541 35.3622C20.2365 35.184 19.7642 35.184 19.3465 35.3622L15.6757 36.9277ZM18.2503 25.9167L20.6045 23.5625L22.9587 21.2083L27.667 16.5L25.3337 14.0833L21.792 17.625L18.2503 21.1667L14.667 17.6667L12.3337 20L18.2503 25.9167Z" fill="#696969"/>
</g>
</svg>
