<svg width="24" height="24" viewBox="0 0 24 24" fill="none" xmlns="http://www.w3.org/2000/svg">
<mask id="mask0_3401_1865" style="mask-type:alpha" maskUnits="userSpaceOnUse" x="0" y="0" width="24" height="24">
<rect width="24" height="24" fill="#D9D9D9"/>
</mask>
<g mask="url(#mask0_3401_1865)">
<path d="M1 20V17.2C1 16.6333 1.14583 16.1125 1.4375 15.6375C1.72917 15.1625 2.11667 14.8 2.6 14.55C3.63333 14.0333 4.68333 13.6458 5.75 13.3875C6.81667 13.1292 7.9 13 9 13C9.53333 13 10.0708 13.0292 10.6125 13.0875C11.1542 13.1458 11.6917 13.2417 12.225 13.375C12.0083 13.6583 11.8208 13.9542 11.6625 14.2625C11.5042 14.5708 11.375 14.8917 11.275 15.225C10.8917 15.1417 10.5125 15.0833 10.1375 15.05C9.7625 15.0167 9.38333 15 9 15C8.06667 15 7.14167 15.1125 6.225 15.3375C5.30833 15.5625 4.4 15.9 3.5 16.35C3.35 16.4333 3.22917 16.55 3.1375 16.7C3.04583 16.85 3 17.0167 3 17.2V18H11.075C11.1417 18.3667 11.2333 18.7167 11.35 19.05C11.4667 19.3833 11.6167 19.7 11.8 20H1ZM9 12C7.9 12 6.95833 11.6083 6.175 10.825C5.39167 10.0417 5 9.1 5 8C5 6.9 5.39167 5.95833 6.175 5.175C6.95833 4.39167 7.9 4 9 4C10.1 4 11.0417 4.39167 11.825 5.175C12.6083 5.95833 13 6.9 13 8C13 9.1 12.6083 10.0417 11.825 10.825C11.0417 11.6083 10.1 12 9 12ZM19 8C19 9.1 18.6083 10.0417 17.825 10.825C17.0417 11.6083 16.1 12 15 12C14.8167 12 14.5833 11.9792 14.3 11.9375C14.0167 11.8958 13.7833 11.85 13.6 11.8C14.05 11.2667 14.3958 10.675 14.6375 10.025C14.8792 9.375 15 8.7 15 8C15 7.3 14.8792 6.625 14.6375 5.975C14.3958 5.325 14.05 4.73333 13.6 4.2C13.8333 4.11667 14.0667 4.0625 14.3 4.0375C14.5333 4.0125 14.7667 4 15 4C16.1 4 17.0417 4.39167 17.825 5.175C18.6083 5.95833 19 6.9 19 8ZM9 10C9.55 10 10.0208 9.80417 10.4125 9.4125C10.8042 9.02083 11 8.55 11 8C11 7.45 10.8042 6.97917 10.4125 6.5875C10.0208 6.19583 9.55 6 9 6C8.45 6 7.97917 6.19583 7.5875 6.5875C7.19583 6.97917 7 7.45 7 8C7 8.55 7.19583 9.02083 7.5875 9.4125C7.97917 9.80417 8.45 10 9 10ZM17 19C17.5667 19 18.0375 18.8333 18.4125 18.5C18.7875 18.1667 18.9833 17.6667 19 17C19.0167 16.4333 18.8292 15.9583 18.4375 15.575C18.0458 15.1917 17.5667 15 17 15C16.4333 15 15.9583 15.1917 15.575 15.575C15.1917 15.9583 15 16.4333 15 17C15 17.5667 15.1917 18.0417 15.575 18.425C15.9583 18.8083 16.4333 19 17 19ZM17 21C15.9 21 14.9583 20.6083 14.175 19.825C13.3917 19.0417 13 18.1 13 17C13 15.9 13.3917 14.9583 14.175 14.175C14.9583 13.3917 15.9 13 17 13C18.1 13 19.0417 13.3917 19.825 14.175C20.6083 14.9583 21 15.9 21 17C21 17.3833 20.9542 17.7458 20.8625 18.0875C20.7708 18.4292 20.6333 18.75 20.45 19.05L23 21.6L21.6 23L19.05 20.45C18.75 20.6333 18.4292 20.7708 18.0875 20.8625C17.7458 20.9542 17.3833 21 17 21Z" fill="#1C1B1F"/>
</g>
</svg>
