<svg width="24" height="24" viewBox="0 0 24 24" fill="none" xmlns="http://www.w3.org/2000/svg">
<path d="M14.7578 8.74988C17.5193 13.5329 17.2378 18.8649 14.1288 20.6599C11.0198 22.4549 6.26127 20.0334 3.49977 15.2499C0.738273 10.4664 1.01977 5.13488 4.12877 3.33988C7.23777 1.54488 11.9968 3.96688 14.7578 8.74988Z" stroke="#FF025B" stroke-width="2" stroke-linecap="round" stroke-linejoin="round"/>
<path d="M9.12868 8.74988C6.36718 13.5329 6.64868 18.8649 9.75768 20.6599C12.8667 22.4549 17.6257 20.0329 20.3872 15.2499C23.1487 10.4669 22.8672 5.13488 19.7577 3.33988C16.6497 1.54488 11.8902 3.96688 9.12868 8.74988Z" stroke="#FF025B" stroke-width="2" stroke-linecap="round" stroke-linejoin="round"/>
<path d="M11.876 5.17188C12.9485 6.12587 13.941 7.33438 14.758 8.74988C17.519 13.5329 17.2375 18.8649 14.1285 20.6599C13.4795 21.0349 12.7585 21.2259 11.9985 21.2499" stroke="#FF025B" stroke-width="2" stroke-linecap="round" stroke-linejoin="round"/>
</svg>
