<svg width="28" height="28" viewBox="0 0 28 28" fill="none" xmlns="http://www.w3.org/2000/svg">
<path d="M11.6666 20.9997C13.7374 20.9994 15.7486 20.3062 17.3798 19.0303L22.5084 24.159L24.1581 22.5093L19.0294 17.3807C20.3059 15.7494 20.9996 13.7377 20.9999 11.6663C20.9999 6.52017 16.8128 2.33301 11.6666 2.33301C6.52042 2.33301 2.33325 6.52017 2.33325 11.6663C2.33325 16.8125 6.52042 20.9997 11.6666 20.9997ZM11.6666 4.66634C15.5271 4.66634 18.6666 7.80584 18.6666 11.6663C18.6666 15.5268 15.5271 18.6663 11.6666 18.6663C7.80609 18.6663 4.66659 15.5268 4.66659 11.6663C4.66659 7.80584 7.80609 4.66634 11.6666 4.66634Z" fill="#FF025B"/>
</svg>
