<svg width="32" height="32" viewBox="0 0 32 32" fill="none" xmlns="http://www.w3.org/2000/svg">
<path d="M9 25L23 25C27.9625 25 32 20.9625 32 16C32 11.0375 27.9625 7 23 7L9 7C4.0375 7 0 11.0375 0 16C0 20.9625 4.0375 25 9 25ZM9 9C10.3845 9 11.7378 9.41054 12.889 10.1797C14.0401 10.9489 14.9373 12.0421 15.4672 13.3212C15.997 14.6003 16.1356 16.0078 15.8655 17.3656C15.5954 18.7235 14.9287 19.9708 13.9497 20.9497C12.9708 21.9287 11.7235 22.5954 10.3656 22.8655C9.00777 23.1356 7.6003 22.997 6.32122 22.4672C5.04213 21.9373 3.94888 21.0401 3.17971 19.889C2.41054 18.7378 2 17.3845 2 16C2.00199 14.1441 2.74012 12.3648 4.05244 11.0524C5.36477 9.74012 7.14409 9.00199 9 9Z" fill="#696969"/>
</svg>
