<svg width="32" height="32" viewBox="0 0 32 32" fill="none" xmlns="http://www.w3.org/2000/svg">
<path d="M23 7H9C4.0375 7 0 11.0375 0 16C0 20.9625 4.0375 25 9 25H23C27.9625 25 32 20.9625 32 16C32 11.0375 27.9625 7 23 7ZM23 23C21.6155 23 20.2622 22.5895 19.111 21.8203C17.9599 21.0511 17.0627 19.9579 16.5328 18.6788C16.003 17.3997 15.8644 15.9922 16.1345 14.6344C16.4046 13.2765 17.0713 12.0292 18.0503 11.0503C19.0292 10.0713 20.2765 9.4046 21.6344 9.1345C22.9922 8.86441 24.3997 9.00303 25.6788 9.53284C26.9579 10.0627 28.0511 10.9599 28.8203 12.111C29.5895 13.2622 30 14.6155 30 16C29.998 17.8559 29.2599 19.6352 27.9476 20.9476C26.6352 22.2599 24.8559 22.998 23 23Z" fill="#FF025B"/>
</svg>
