<svg width="28" height="28" viewBox="0 0 28 28" fill="none" xmlns="http://www.w3.org/2000/svg">
<path d="M4.66675 21.0002C4.66675 19.7625 5.15841 18.5755 6.03358 17.7003C6.90875 16.8252 8.09574 16.3335 9.33341 16.3335H18.6667C19.9044 16.3335 21.0914 16.8252 21.9666 17.7003C22.8417 18.5755 23.3334 19.7625 23.3334 21.0002C23.3334 21.619 23.0876 22.2125 22.65 22.6501C22.2124 23.0877 21.6189 23.3335 21.0001 23.3335H7.00008C6.38124 23.3335 5.78775 23.0877 5.35017 22.6501C4.91258 22.2125 4.66675 21.619 4.66675 21.0002Z" stroke="#696969" stroke-width="2.33333" stroke-linejoin="round"/>
<path d="M14 11.6667C15.933 11.6667 17.5 10.0997 17.5 8.16675C17.5 6.23375 15.933 4.66675 14 4.66675C12.067 4.66675 10.5 6.23375 10.5 8.16675C10.5 10.0997 12.067 11.6667 14 11.6667Z" stroke="#696969" stroke-width="2.33333"/>
</svg>
