<svg width="20" height="20" viewBox="0 0 20 20" fill="none" xmlns="http://www.w3.org/2000/svg">
<mask id="mask0_1036_1343" style="mask-type:alpha" maskUnits="userSpaceOnUse" x="0" y="0" width="20" height="20">
<rect width="20" height="20" rx="0.833333" fill="#D9D9D9"/>
</mask>
<g mask="url(#mask0_1036_1343)">
<path d="M7.83833 18.4638C7.45419 18.6277 7.0081 18.4818 6.79488 18.1227L5.76797 16.3932C5.65057 16.1955 5.45668 16.055 5.2322 16.0052L3.30212 15.5763C2.89186 15.4851 2.61369 15.1027 2.65326 14.6843L2.84186 12.6905C2.86343 12.4625 2.7902 12.2357 2.63938 12.0633L1.31414 10.5488C1.03923 10.2346 1.03923 9.76543 1.31414 9.45125L2.63938 7.93669C2.7902 7.76432 2.86343 7.53748 2.84186 7.30946L2.65326 5.31572C2.61369 4.89731 2.89186 4.51492 3.30212 4.42375L5.2322 3.99484C5.45668 3.94496 5.65057 3.80453 5.76797 3.6068L6.79488 1.87726C7.0081 1.51816 7.45419 1.37234 7.83834 1.53617L9.67375 2.31892C9.88258 2.40798 10.1187 2.40798 10.3276 2.31892L12.163 1.53617C12.5471 1.37234 12.9932 1.51816 13.2064 1.87726L14.2333 3.6068C14.3507 3.80453 14.5446 3.94496 14.7691 3.99484L16.6992 4.42375C17.1094 4.51492 17.3876 4.89731 17.348 5.31572L17.1594 7.30946C17.1379 7.53748 17.2111 7.76432 17.3619 7.93669L18.6872 9.45125C18.9621 9.76543 18.9621 10.2346 18.6872 10.5488L17.3619 12.0633C17.2111 12.2357 17.1379 12.4625 17.1594 12.6905L17.348 14.6843C17.3876 15.1027 17.1094 15.4851 16.6992 15.5763L14.7691 16.0052C14.5446 16.055 14.3507 16.1955 14.2333 16.3932L13.2064 18.1227C12.9932 18.4818 12.5471 18.6277 12.163 18.4638L10.3276 17.6811C10.1187 17.592 9.88258 17.592 9.67375 17.6811L7.83833 18.4638ZM9.12565 12.9583L13.834 8.25L12.6673 7.04167L9.12565 10.5833L7.33398 8.83333L6.16732 10L9.12565 12.9583Z" fill="#0270FF"/>
</g>
</svg>
