<svg width="32" height="32" viewBox="0 0 32 32" fill="none" xmlns="http://www.w3.org/2000/svg">
<path d="M19.677 11.6666C23.359 18.0439 22.9837 25.1532 18.8384 27.5465C14.693 29.9399 8.34836 26.7112 4.66636 20.3332C0.984364 13.9552 1.3597 6.84655 5.50503 4.45322C9.65036 2.05988 15.9957 5.28922 19.677 11.6666Z" stroke="#FF025B" stroke-width="2.66667" stroke-linecap="round" stroke-linejoin="round"/>
<path d="M12.1715 11.6666C8.48949 18.0439 8.86483 25.1532 13.0102 27.5465C17.1555 29.9399 23.5008 26.7105 27.1828 20.3332C30.8648 13.9559 30.4895 6.84655 26.3435 4.45322C22.1995 2.05988 15.8535 5.28922 12.1715 11.6666Z" stroke="#FF025B" stroke-width="2.66667" stroke-linecap="round" stroke-linejoin="round"/>
<path d="M15.8352 6.89587C17.2652 8.16787 18.5885 9.77921 19.6779 11.6665C23.3592 18.0439 22.9839 25.1532 18.8385 27.5465C17.9732 28.0465 17.0119 28.3012 15.9985 28.3332" stroke="#FF025B" stroke-width="2.66667" stroke-linecap="round" stroke-linejoin="round"/>
</svg>
